<?xml version="1.0" encoding="UTF-8"?>
<svg xmlns="http://www.w3.org/2000/svg" xmlns:xlink="http://www.w3.org/1999/xlink" viewBox="0 0 137.88 137.88">
  <defs>
    <style>
      .cls-1 {
        opacity: .18;
      }

      .cls-2 {
        opacity: .31;
      }

      .cls-3 {
        fill: #fff;
      }

      .cls-3, .cls-4 {
        fill-rule: evenodd;
      }

      .cls-5 {
        fill: url(#_Áåçûìÿííûé_ãðàäèåíò_558);
      }

      .cls-5, .cls-6 {
        mix-blend-mode: screen;
      }

      .cls-7 {
        isolation: isolate;
      }

      .cls-6 {
        fill: url(#_Áåçûìÿííûé_ãðàäèåíò_50);
      }

      .cls-4 {
        fill: #635eb0;
      }
    </style>
    <radialGradient id="_Áåçûìÿííûé_ãðàäèåíò_50" data-name="Áåçûìÿííûé ãðàäèåíò 50" cx="-1541.5" cy="196.55" fx="-1541.5" fy="196.55" r="28.92" gradientTransform="translate(535.5 -3621.6) rotate(-90) scale(2.39 -2.37)" gradientUnits="userSpaceOnUse">
      <stop offset="0" stop-color="#31229d"/>
      <stop offset=".16" stop-color="#2f2198"/>
      <stop offset=".32" stop-color="#2b1e8c"/>
      <stop offset=".48" stop-color="#251977"/>
      <stop offset=".64" stop-color="#1c135a"/>
      <stop offset=".81" stop-color="#100b35"/>
      <stop offset=".97" stop-color="#020108"/>
      <stop offset="1" stop-color="#000"/>
    </radialGradient>
    <radialGradient id="_Áåçûìÿííûé_ãðàäèåíò_558" data-name="Áåçûìÿííûé ãðàäèåíò 558" cx="-1541.98" cy="196.55" fx="-1541.98" fy="196.55" r="24.67" gradientTransform="translate(536.32 -3621.94) rotate(-90) scale(2.39 -2.37)" gradientUnits="userSpaceOnUse">
      <stop offset="0" stop-color="#0037a4"/>
      <stop offset=".15" stop-color="#00359f"/>
      <stop offset=".31" stop-color="#003193"/>
      <stop offset=".47" stop-color="#002a7f"/>
      <stop offset=".63" stop-color="#002162"/>
      <stop offset=".79" stop-color="#00143d"/>
      <stop offset=".95" stop-color="#000511"/>
      <stop offset="1" stop-color="#000"/>
    </radialGradient>
  </defs>
  <g class="cls-7">
    <g id="Layer_2" data-name="Layer 2">
      <g id="layer1">
        <g>
          <ellipse class="cls-6" cx="68.94" cy="68.94" rx="68.64" ry="69.23" transform="translate(-28.56 68.94) rotate(-45)"/>
          <ellipse class="cls-5" cx="69.76" cy="69.76" rx="58.56" ry="59.06" transform="translate(-28.89 69.76) rotate(-45)"/>
          <path class="cls-3" d="m18.29,69.96c0-28.22,22.88-51.1,51.1-51.1,23.99,0,44.11,16.52,49.61,38.81.97,3.93,1.49,8.05,1.49,12.29,0,1.87-.1,3.72-.3,5.54-2.76,25.62-24.45,45.56-50.8,45.56-28.22,0-51.1-22.88-51.1-51.1Z"/>
          <g class="cls-2">
            <path class="cls-4" d="m35.26,89.27c2.27-.05,4.35,1.66,6.21,2.94,1.52,1.05,3.12,2.71,3.85,4.33.22.49.3.89.47,1.39.04.11.59,1.58.59,1.62-.02.86-.72,1.89-1.37,2.55-1.84,1.9-4.67.53-6.52-.61-1.75-1.09-3.44-2.31-4.92-3.72-.71-.68-1.69-1.29-2.19-2.15-.67-1.13-.47-2.51-.45-3.88.03-2.09-2.71-4.5.6-4.97,1.3-.18,5.29.92,5.59,2.49h-1.86Z"/>
            <path class="cls-4" d="m76.11,23.04c.56-.63,1.23-.19,1.86,0,.61.2,1.15.31,1.85.3,1.36,0,2.58-.01,3.87.31,1.22.3,2.39.48,3.56.77.47.12.91.38,1.38.48.29.06.62-.04.91.01.14.03.15.19.25.21.24.05.47.02.7.06,1.17.21,2.27.56,3.32.87.5.15.95.17,1.4.45.47.29,1.13.61,1.55.93,1.67,1.23,3.5,2.27,5.02,3.8,1.44,1.44,2.91,2.76,4.42,4.1.35.31.63.72,1,1.01.4.32.78.46,1.16.85.78.79,1.39,1.66,2.01,2.56,1.22,1.76,2.79,3.21,3.75,5.14.46.93.88,1.84,1.43,2.74.35.56.69,1.26.94,1.87.19.47.57,1.02.7,1.46.19.67.19,1.3.37,1.95.08.28.27.47.33.75.08.35-.1.76-.03,1.11.07.31.27.45.34.75.08.35-.1.76-.03,1.11.07.31.27.45.34.75.1.4-.13.87-.03,1.27.07.29.27.43.34.75.07.32,0,.76-.01,1.09,0,.8.28,1.41.32,2.17.04.69.15,1.66,0,2.33-.07.31-.27.45-.34.75-.1.41.1.82-.04,1.23-.83.22-.57-1.55-.57-1.99,0-.8-.33-1.24-.31-2.01.02-.96-.38-1.09-.94-1.79-.24-.3-.81-.89-.93-1.29-.08-.26-.07-.69-.14-.94-.08-.32-.16-.54-.15-.93.01-.75.05-1.14-.54-1.62-.41-.34-1.1-.75-1.61-.87-.7-.16-1.32-.15-2.04-.28-.33-.06-.44-.27-.75-.34-.39-.09-.81.15-1.19-.05-.36-.19-.82-.91-.92-1.25-.2-.67-.06-1.21.24-1.79.11-.21.19-.42.31-.62.14-.23.43-.45.56-.68.58-1.07-.26-2.81-.49-3.72-.09-.35-.62-1.42-.33-1.74.29-.32,2.05-.04,2.38.15.19-.39-.18-1.14-.29-1.56-.14-.48-.37-1.18-.66-1.66-.56-.92-1.57-1.78-2.52-2.28-.63-.33-1.01-.51-1.13.34-.05.38.06.59-.14.95-.14.25-.39.28-.49.59-.11.34.11.77.03,1.11-.06.25-.24.41-.29.63-.17.73.11,1.55-.01,2.29-.25,1.49-1.36,2.16-2.65,2.48-1.32.32-2.61.69-3.85,1.24-1.39.62-2.9.84-4.35.39-1.19-.37-2.13-1.09-3.21-1.66-.5-.27-.95-.38-1.44-.57-.57-.22-1.16-.43-1.72-.6-1.02-.29-2.2-.46-3.14-1.03-.89-.53-2.08-1.23-2.71-2.09-.6-.82-1.18-2.51-.74-3.54.33-.78,1.51-1.46,2.07-2.11.95-1.11.7-1.86,0-3.01-.26-.42-.7-.97-.82-1.43-.16-.6-.06-1.51-.03-2.14.03-.6.21-.99.54-1.48.3-.46,1.01-.75,1.26-1.21.22-.42.02-.63-.16-.95-.05-.09-.2-.12-.25-.21-.12-.22-.04-.43-.13-.64-.31-.71-.92-.6-1.56-.77-.66-.17-1.23-.1-1.87.15-.38.15-.5.26-.91.32-.46.07-.67-.18-1-.25-.76-.16-1.2.36-1.96.41-.6.03-.98-.24-1.46-.71-.39-.39-.94-1.05-.87-1.63.07-.6.84-.98,1.26-1.54Z"/>
            <path class="cls-4" d="m81.99,46.25c-.19.11-.36.19-.54.26-.48-.56-1.03-1.12-1.63-1.5-.9-.57-1.35-.21-1.56.76-.11.5.16.8.25,1.16.1.41,0,.85.44,1.11.6.36,2.36.17,2.1-.87l.93-.93Z"/>
            <path class="cls-4" d="m111.7,86.18c.14-.23.33-.33.57-.29.13.53.12,1.43.02,1.96-.05.29-.25.43-.29.79-.04.3,0,.57-.06.87-.08.38-.4.99-.48,1.38-.13.6-.15.92-.39,1.47-.22.5-.35,1.15-.57,1.72-.2.52-.45.9-.74,1.37-.57.94-1.04,1.85-1.62,2.79-1.03,1.67-2.19,3.33-3.74,4.63-.53.45-1.13.78-1.69,1.17-.19.13-.34.35-.53.47-.18.12-.47.17-.64.29-.48.35-1.87,1.76-2.51,1.42.44-1.15,1.19-2.3,1.74-3.43.64-1.3,1.83-1.24,2.78-2.17,1.49-1.45-.99-2.05-1.85-2.61-.84-.55-.86-1.35-.85-2.26,0-.85-.06-1.53-.31-2.32-.1-.32-.27-.74-.33-1.08.01-.21.02-.42.03-.64-.02-.17-.11-.29-.26-.36-.19-.88.17-1.41.47-2.17.29-.74.48-1.45,1.08-2.02.61-.56,1.27-.38,2.09-.39.52,0,.76.12,1.24.24.31.08.76.26,1,.31.37.07.73.06,1.1.14.38.08.41.31.93.17.54-.14,1.04-.75,1.6-.87.78-.18,1.67.19,2.44-.04.02-.09.04-.17-.26-.57Z"/>
            <path class="cls-4" d="m53.81,46.66c.9.02,2.07-1.02,2.6-1.79.73-1.05-.63-2.14-1.39-2.66-.28-.19-.55-.39-.87-.53-.19-.08-.62-.37-.8-.37-.55,0-.75,1.3-.96,1.73-.65,1.36.39,2.35,1.41,3.15v.46Z"/>
            <path class="cls-4" d="m49.42,44.58c.06-.05.13-.1.19-.15.3.66-.17,1.36-.22,1.98-.44.02-1.37-.8-1.37-1.25,0-.76,1.12-.8,1.63-.81l-.23.23Z"/>
            <path class="cls-4" d="m41.33,74.62c.26,1.13,1.84-.13,2.25-.52.28-.27.58-.53.76-.86.23-.44.21-.98.22-1.51.02-.57.24-1.03.23-1.62,0-.61-.05-1.18-.22-1.75-.3-.99-1.03-1.73-1.86-2.3-.42-.29-.93-.5-1.39-.75-.6-.32-.61-.47-1.24-.15-.71.37-1.48.72-2.05,1.3-.67.68-1.31,1.32-1.79,2.14-.61,1.05.04,1.85.58,2.78.64,1.08,1.59,1.99,2.48,2.94.24.26.61.78.91.94.59.3,1.22-.2,1.11-.65Z"/>
            <path class="cls-4" d="m41.56,78.78c.06.02.12.03.19.04.02.3.66,1.26.24,1.54-.32.21-.81-.43-1-.66-.31-.38-.59-1.05-.18-1.46.39-.4,1.15-.06.99.53h-.23Z"/>
            <path class="cls-4" d="m51.73,28.18c.32.38,1.27.55,1.73.44.59-.13,1.05-.34,1.62-.44,1.15-.2,2.6-.78,3.59-1.39,1.44-.89,3.97-3.39,1.52-4.66-.99-.51-2.23-.42-3.38-.43-.59,0-.9.24-1.5.23-.64-.01-1.16.21-1.73.35-1.04.25-2.01.56-3,.98-.89.37-1.57,1.01-2.26,1.68-.86.83-.98,1.95-.11,2.83.51.52.96.4,1.67.4.69,0,1.39,0,1.85,0Z"/>
            <path class="cls-4" d="m45.49,28.64c.1-.18.25-.25.43-.21.25.52-1.05,1.35-1.41,1.54-.61.31-1.8.96-2.03-.05-.15-.66.58-1.54,1.15-1.87.65-.36,1.92-.02,2.09.82l-.23-.23Z"/>
            <path class="cls-4" d="m26.31,72.31c.06-.01.13-.03.19-.04.27-.93-.15-1.85-.2-2.73-.05-.92,0-1.85,0-2.77s0-1.85,0-2.77c0-.38.03-.74-.05-1.1-.03-.16-.16-.29-.18-.51-.04-.29,0-.63,0-.93,0-.45.04-.91-.05-1.34,0-.04-.16-.46-.18-.51-.09-.26,0-.29-.17-.52-.42-.64-1.23-1.05-1.92-.69-.57.29-1,.74-1.59.99-.85.36-1.23.83-1.63,1.62-.33.65-.46,1.37-.69,2.09-.06.2-.2.23-.25.44-.05.21,0,.44-.04.65-.03.15-.16.29-.19.51.01.16.02.32.02.48-.01.13-.08.22-.19.27-.08.37-.02.72-.05,1.1-.03.49-.21.88-.23,1.39-.02.5-.24.87-.24,1.39,0,.46,0,.92,0,1.39,0,.92.01,1.85,0,2.77,0,.47.14.72.23,1.15.09.46.12.95.22,1.4.07.31.35.67.42.96.11.46.18.7.46,1.11.5.76.8,1.08,1.62,1.44.78.34,1.84.21,2.55-.35.24-.19.67-.57.75-.85.06-.19,0-.45.04-.65.05-.25.18-.4.18-.75-.01-.89-.21-2.15-.01-3.02.1-.42.39-.93.53-1.37.18-.56.18-1.02.64-.23Z"/>
            <path class="cls-4" d="m27.46,84.1c.61.19.93-1.18.92-1.62,0-.37.12-.8-.22-1.05-.22-.16-.9-.2-1.18-.12-.73.22-.67,1.26-.68,1.86,0,.67.56,1.54,1.39,1.39l-.23-.46Z"/>
            <path class="cls-4" d="m106.72,85.02c.01.06.03.12.04.19.24.02.36.21.55.26.25.06.53.02.79.02.56,0,.88.18,1.38.24.25.03.56,0,.82,0,.3-.01.41-.14.63-.18.51-.11.9-.07,1.34-.39.69-.51,1.21-1.34,1.61-2.06.51-.9.92-1.83.92-2.91,0-.47.01-.86-.26-1.24-.28-.4-.42-.68-.61-1.12-.42-.98-.8-1.32-1.91-1.33-1,0-1.93.57-2.77,1.03-.4.22-.72.53-1.07.79-.3.22-.66.37-.9.71-.59.82-.69,1.88-.92,2.78-.12.48-.22,1.18-.1,1.71.02.1.14.11.16.19.05.18,0,.37.04.53.07.26.32.5.24.8Z"/>
            <path class="cls-4" d="m104.18,83.17c.59.02-.21,1.66-.87,1.57-.56-.07-1.06-.99-1.19-1.48-.57-2.07,2.56-2.23,2.52-.33l-.46.23Z"/>
            <path class="cls-4" d="m96.56,79.47c.05-.49.53-.78.64-1.21.11-.45-.08-.81-.35-1.17-.21-.28-.61-.73-.99-.65-.38.08-.61.61-.91.83-.61.46-1.68.92-.93,1.84.3.37.81.52,1.27.58.68.1.99-.09,1.5-.47l-.23.23Z"/>
            <path class="cls-4" d="m112.5,58.91c.85-.21.78,1.1.66,1.58-.37.07-.76.3-1.12.28-.38-.02-1.04-.33-1.34-.54-.67-.47-1.04-1.24-.64-2.02.25-.49,1.38-1.24,1.93-.88.49.32.75,1.51.74,2.03l-.23-.46Z"/>
            <path class="cls-4" d="m47.34,108.59c.22.42.37.6,0,.93-.3.27-.73.29-1.11.17-.54-.16-1.12-.83-1.5-1.27-.2-.24-.57-.77-.59-1.04-.03-.34.13-.63.35-.93.37-.51.95-.93,1.39-1.38.66-.68,1.08-.28,1.62.35.43.5.77,1.08,1.16,1.61.1.13.45.79.47.93.04.28-.11.62-.29.87-.39.52-1.14,1.18-1.74,1.38l.23-1.62Z"/>
            <path class="cls-4" d="m41.79,106.74c.06-.01.13-.03.19-.04.19-.6-.05-.99-.64-1.13-.53-.12-1.29.1-1.41.58-.11.46.35.91.7,1.17.54.4,1.04.48,1.16-.35v-.23Z"/>
            <path class="cls-4" d="m45.26,47.59c-.07-.23.21-.87.28-1.1.1-.33.27-.77.41-1.09.16-.35.27-.75.35-1.16.08-.42.28-.76.36-1.15.17-.87-.85-1.48-1.64-1.29-.7.17-1.32.71-1.89,1.12-.38.27-.48.22-.7.69-.18.4-.27.81-.4,1.22-.13.42-.24.65-.24,1.14,0,.46-.06.94.05,1.39.53,2.18,2.92.78,3.41-.69v.92Z"/>
            <path class="cls-4" d="m38.32,32.57c.23.82-1.32,1.39-1.85,1.38-.63,0-.75-.07-.98-.63-.21-.5-.28-.85.05-1.33.49-.7,1.84-1.1,2.64-.79.97.38.54,1.66-.33,1.83l.46-.46Z"/>
            <path class="cls-4" d="m48.26,49.2c.26.06.63.43.71.68.06.2-.02.44.04.65.05.17.16.29.18.51.03.22-.06.48-.02.7.05.25.21.44.25.69.08.44-.1.94-.02,1.39.07.41.48.89.2,1.34-.23.37-.73.33-1.11.28-.4-.05-.74-.19-1.15-.29-.48-.11-1.07-.37-1.48-.64-.65-.44-1.35-.93-1.53-1.72-.17-.74-.05-1.99.12-2.67.14-.58.43-1.38,1.03-1.74.6-.35,1.97-.15,2.55.12l.23.69Z"/>
            <path class="cls-4" d="m42.95,49.67c0,.05,0,.1,0,.15.21-1.12-1.12-.99-1.4-.16-.32.95,1.2,1.24,1.4.24v-.23Z"/>
            <path class="cls-4" d="m26.7,56.64c-.32.67-.49,1.28-.33,2.03.16.72.6,1.43.87,2.11.21.54.19.96.08,1.52-.14.7-.14,1.42,0,2.12.15.78.35,1.61.43,2.4.09.91.02,1.86,0,2.77-.02,1.87.9,3.3,2.57,4.11.53.26,1.01.28,1.58.28.61,0,.83-.17,1.25-.61.46-.49.62-1.01.91-1.58.26-.53.49-.96.64-1.53.23-.86-.18-2.17.41-2.92.18-.23.46-.34.68-.52.26-.21.48-.47.71-.7.57-.56.6-1.08.92-1.79.25-.57.51-1.14.95-1.59.6-.63,1.42-1,1.97-1.64.42-.5.51-.98.52-1.62,0-.4.07-.87-.03-1.26-.12-.45-.32-.75-.33-1.24,0-.52,0-.92.18-1.4.24-.66.41-1.24.36-1.95-.1-1.55-.99-2.91-1.78-4.21-.37-.61-.71-1.19-.85-1.9-.15-.79.11-1.63.31-2.4.21-.8.7-1.36,1.14-2.03.42-.65.9-1.42,1.52-1.91.7-.55,1.27-.9,2.14-1.04.3-.05.59-.16.9-.17.4-.01.75.16,1.13.2,1.56.16,2.9-.83,4.43-.9.64-.03,1.24.09,1.78.43.44.28.98.5,1.49.6,1.27.27,2.92-.44,3.94.56.38.37.45.9.83,1.25.67.63,1.55.8,2.4.99,1.26.28,2.54.43,3.76.88,1.21.45,2.29,1.27,3.49,1.69,1.21.42,3.06.2,4.26-.12.74-.19,1.81-.61,2.22-1.31.24-.41.37-.77.7-1.11.33-.35.77-.36,1.24-.47,1.47-.34,2.23-1.46,2.53-2.88.21-1,.07-2.02.25-3.03.2-1.12.61-2.15,1.03-3.19.32-.78.5-1.57.45-2.42-.05-.77-.13-1.98-.89-2.39-.61-.33-1.38-.32-2.05-.26-1.15.11-2.31.34-3.45,0-1.04-.31-1.49-1.05-1.99-1.96-.67-1.21-.98-2.53-1.67-3.73-.53-.92-1.22-1.72-2.36-1.78-.75-.04-1.29.34-1.76.9-.63.74-1.01,1.66-1.62,2.42-.51.64-1.05,1.34-1.7,1.84-1.12.86-2.61.91-3.89,1.4-1.37.53-2.51,1.52-3.94,1.87-1.89.46-3.79.09-5.71.3-1.19.13-2.21.45-3.32.85-.93.34-1.62.88-2.48,1.33-.86.45-1.6.98-2.52,1.33-.92.35-1.89.57-2.8.96-.89.38-1.63.84-2.57,1.09-1.02.27-2.03.83-2.87,1.48-.84.66-1.47,1.53-1.95,2.47-.29.59-.47,1.23-.79,1.81-.31.57-.78,1.09-1.21,1.57-.64.72-1.32,1.38-1.94,2.12-.75.88-1.24,2.08-1.78,3.1-.42.78-.61,1.61-.96,2.42-.36.82-.69,1.66-1.16,2.42-.26.43-.64,1.07-.68,1.59-.02.22.08.5.15.71.08.25.28.43.35.67.13.47.01,1.08.36,1.46.29.31.64.23.98.04.36-.21.64-.42,1.06-.52.23-.05.95-.35,1.5-.02Z"/>
          </g>
          <g class="cls-1">
            <path class="cls-4" d="m66.47,27.96c.36-.43-1.05,1.11-1.1,1.38-.02.12.06.33.06.47,0,.29-.03.58-.12.86-.24.75-.79,1.45-1.19,2.12-.17.29-.38.45-.59.69-.2.24-.3.48-.53.7-.67.65-1.32,1.3-1.91,2.03-1.05,1.32-1.11,2.95-.08,4.3.27.36.92.88,1.35.97.31.06.62.01.91-.07.55-.15,1.11-.19,1.66-.34.68-.18,1.15-.05,1.8.19.32.12.68.2.98.36.3.16.55.33.89.43.69.19,1.36.02,2.02-.25.44-.18.89-.4,1.31-.63.55-.3,1.17-.41,1.74-.68.43-.2.87-.5,1.25-.79.32-.23.52-.61.78-.9.68-.78.46-1.98.77-2.89.29-.84.95-1.48,1.1-2.38.14-.79-.28-1.57-.77-2.16-.56-.67-1.48-1-2.34-1.02-.66-.01-1.33.05-1.99.02-.48-.02-.9-.25-1.33-.45-.5-.23-.9-.54-1.37-.79-.42-.23-.75-.55-1.18-.77-.42-.21-.72-.41-1.2-.44-.43-.02-.66.21-.92.04Z"/>
            <path class="cls-4" d="m51.84,33.09c-.15-.66-.33-1.29-1.09-1.43-.39-.07-.99-.05-1.38.04-.67.14-1.11.59-1.67.93-.59.36-1.82.72-1.71,1.61.09.77.96,1.18,1.51,1.61.63.48,1.01,1.09,1.9.97.91-.12,1.55-.83,1.95-1.57.26-.48.59-.94.75-1.46.11-.34.06-1.17-.44-1.24l.18.53Z"/>
            <path class="cls-4" d="m62.65,60.92c-.11-.51-.25-1-.84-1.1-.3-.05-.77-.04-1.07.03-.52.11-.86.45-1.29.72-.46.28-1.4.56-1.32,1.24.07.6.74.91,1.17,1.24.49.37.78.84,1.47.75.71-.09,1.2-.64,1.5-1.21.2-.37.46-.72.58-1.12.08-.26.05-.9-.34-.96l.14.41Z"/>
            <path class="cls-4" d="m33.83,63.47c-.1-.45-.22-.87-.73-.96-.26-.05-.67-.03-.93.02-.45.09-.75.4-1.12.63-.4.24-1.22.49-1.15,1.08.06.52.64.8,1.02,1.08.42.32.68.73,1.28.65.62-.08,1.04-.56,1.31-1.05.17-.33.4-.63.51-.98.07-.23.04-.79-.3-.83l.12.36Z"/>
            <path class="cls-4" d="m23.33,60.88c-.09-.34-.27-.6-.55-.77-.22.23-.52.33-.76.56-.45.42-.95,1.21-1.01,1.82-.04.42.03.91.03,1.34,0,.63-.16,1.2-.19,1.83-.05,1.2-.12,2.26.94,3.02.68.49,1.4.49,2.01-.11.68-.67.92-1.46,1.1-2.38.08-.45.09-.92.17-1.38.07-.4.16-.76.27-1.14.23-.84.27-1.75-.22-2.49-.48-.72-.89-1.19-1.77-.31Z"/>
            <path class="cls-4" d="m87.61,31c-.75.17-1.49.37-2.22.6,0,.72-.39,1.33-.1,2.06.37.92,1.19,1.59,1.49,2.52.6,1.82-.84,3.36-1.09,5.09-.35,2.45,3.06,2.28,4.54,2.44,1.02.11,2.11.24,3.03.74,1.05.57,2.02,1.12,3.22,1.35,1.14.22,2.37-.23,3.35-.81,1.07-.64,1.97-1.81,2.38-2.99.26-.75.06-1.75-.19-2.48-.34-1.02-1.2-1.69-1.93-2.43-.55-.56-.96-1.24-1.5-1.82-.68-.73-1.34-1.48-2.02-2.22-1.08-1.17-2.16-2.43-3.58-3.21-1.02-.56-2.01-.76-3.17-.59-1,.14-1.99.58-2.23,1.76Z"/>
          </g>
        </g>
      </g>
    </g>
  </g>
</svg>