<?xml version="1.0" encoding="UTF-8"?>
<svg id="Layer_2" data-name="Layer 2" xmlns="http://www.w3.org/2000/svg" viewBox="0 0 1178.73 263.61">
  <defs>
    <style>
      .cls-1, .cls-2, .cls-3 {
        opacity: .5;
      }

      .cls-4, .cls-3 {
        fill: #50ffff;
      }

      .cls-2, .cls-5 {
        fill: #5095ff;
      }
    </style>
  </defs>
  <g id="layer1">
    <g class="cls-1">
      <path class="cls-2" d="m1015.42,151.05c0,.29-.23.52-.52.52s-.52-.23-.52-.52.23-.52.52-.52.52.23.52.52Z"/>
      <path class="cls-3" d="m1055.95,113.14c0,.29-.23.52-.52.52s-.52-.23-.52-.52.23-.52.52-.52.52.23.52.52Z"/>
      <path class="cls-3" d="m789.04,112.26c0,.29-.23.52-.52.52s-.52-.23-.52-.52.23-.52.52-.52.52.23.52.52Z"/>
      <path class="cls-3" d="m974.82,91.9c0,.29-.23.52-.52.52s-.52-.23-.52-.52.23-.52.52-.52.52.23.52.52Z"/>
      <path class="cls-3" d="m894.83,96.76c0,.29-.23.52-.52.52s-.52-.23-.52-.52.23-.52.52-.52.52.23.52.52Z"/>
      <path class="cls-3" d="m437.58,122.77c0,.29-.23.52-.52.52s-.52-.23-.52-.52.23-.52.52-.52.52.23.52.52Z"/>
      <circle class="cls-3" cx="464.32" cy="116.04" r=".52"/>
      <path class="cls-2" d="m846.72,133.24c0,.29-.23.52-.52.52s-.52-.23-.52-.52.23-.52.52-.52.52.23.52.52Z"/>
      <path class="cls-3" d="m622.21,133.24c0,.29-.23.52-.52.52s-.52-.23-.52-.52.23-.52.52-.52.52.23.52.52Z"/>
      <path class="cls-3" d="m805.76,130.38c0,.29-.23.52-.52.52s-.52-.23-.52-.52.23-.52.52-.52.52.23.52.52Z"/>
      <path class="cls-3" d="m986.36,137.85c0,.29-.23.52-.52.52s-.52-.23-.52-.52.23-.52.52-.52.52.23.52.52Z"/>
      <path class="cls-3" d="m1106.64,168.14c0,.29-.23.52-.52.52s-.52-.23-.52-.52.23-.52.52-.52.52.23.52.52Z"/>
      <path class="cls-4" d="m637.41,75.45c0,.29-.23.52-.52.52s-.52-.23-.52-.52.23-.52.52-.52.52.23.52.52Z"/>
      <path class="cls-4" d="m628.49,47.41c0,.29-.23.52-.52.52s-.52-.23-.52-.52.23-.52.52-.52.52.23.52.52Z"/>
      <path class="cls-4" d="m649.89,82.96c0,.29-.23.52-.52.52s-.52-.23-.52-.52.23-.52.52-.52.52.23.52.52Z"/>
      <path class="cls-4" d="m994.38,150.23c0,.29-.23.52-.52.52s-.52-.23-.52-.52.23-.52.52-.52.52.23.52.52Z"/>
      <path class="cls-4" d="m1014.55,160.13c0,.29-.23.52-.52.52s-.52-.23-.52-.52.23-.52.52-.52.52.23.52.52Z"/>
      <path class="cls-4" d="m887.19,152.57c0,.29-.23.52-.52.52s-.52-.23-.52-.52.23-.52.52-.52.52.23.52.52Z"/>
      <path class="cls-4" d="m821.51,64.42c0,.29-.23.52-.52.52s-.52-.23-.52-.52.23-.52.52-.52.52.23.52.52Z"/>
      <path class="cls-4" d="m848.77,57.69c0,.29-.23.52-.52.52s-.52-.23-.52-.52.23-.52.52-.52.52.23.52.52Z"/>
      <circle class="cls-5" cx="832.88" cy="160.64" r=".52"/>
      <path class="cls-4" d="m1006.14,74.9c0,.29-.23.52-.52.52s-.52-.23-.52-.52.23-.52.52-.52.52.23.52.52Z"/>
      <path class="cls-4" d="m1142.64,206.46c0,.29-.23.52-.52.52s-.52-.23-.52-.52.23-.52.52-.52.52.23.52.52Z"/>
      <path class="cls-4" d="m637.25,126.81c0,.29-.23.52-.52.52s-.52-.23-.52-.52.23-.52.52-.52.52.23.52.52Z"/>
      <path class="cls-4" d="m657.42,136.71c0,.29-.23.52-.52.52s-.52-.23-.52-.52.23-.52.52-.52.52.23.52.52Z"/>
      <path class="cls-4" d="m530.06,129.15c0,.29-.23.52-.52.52s-.52-.23-.52-.52.23-.52.52-.52.52.23.52.52Z"/>
      <path class="cls-4" d="m464.38,41c0,.29-.23.52-.52.52s-.52-.23-.52-.52.23-.52.52-.52.52.23.52.52Z"/>
      <path class="cls-4" d="m516.69,42.04c0,.29-.23.52-.52.52s-.52-.23-.52-.52.23-.52.52-.52.52.23.52.52Z"/>
      <path class="cls-5" d="m476.26,137.22c0,.29-.23.52-.52.52s-.52-.23-.52-.52.23-.52.52-.52.52.23.52.52Z"/>
      <path class="cls-4" d="m649.01,51.47c0,.29-.23.52-.52.52s-.52-.23-.52-.52.23-.52.52-.52.52.23.52.52Z"/>
      <path class="cls-2" d="m578.88,195.16c0,.29-.23.52-.52.52s-.52-.23-.52-.52.23-.52.52-.52.52.23.52.52Z"/>
      <path class="cls-3" d="m619.4,157.25c0,.29-.23.52-.52.52s-.52-.23-.52-.52.23-.52.52-.52.52.23.52.52Z"/>
      <circle class="cls-3" cx="173.39" cy="252.69" r=".52"/>
      <circle class="cls-3" cx="193.56" cy="262.58" r=".52"/>
      <path class="cls-3" d="m352.5,156.37c0,.29-.23.52-.52.52s-.52-.23-.52-.52.23-.52.52-.52.52.23.52.52Z"/>
      <path class="cls-3" d="m787.12,157.76c0,.29-.23.52-.52.52s-.52-.23-.52-.52.23-.52.52-.52.52.23.52.52Z"/>
      <path class="cls-3" d="m1100.65,230.28c0,.29-.23.52-.52.52s-.52-.23-.52-.52.23-.52.52-.52.52.23.52.52Z"/>
      <path class="cls-3" d="m538.27,136.01c0,.29-.23.52-.52.52s-.52-.23-.52-.52.23-.52.52-.52.52.23.52.52Z"/>
      <path class="cls-3" d="m458.29,140.87c0,.29-.23.52-.52.52s-.52-.23-.52-.52.23-.52.52-.52.52.23.52.52Z"/>
      <circle class="cls-3" cx="66.2" cy="255.03" r=".52"/>
      <path class="cls-3" d="m1.03,166.88c0,.29-.23.52-.52.52s-.52-.23-.52-.52.23-.52.52-.52.52.23.52.52Z"/>
      <path class="cls-3" d="m28.29,160.15c0,.29-.23.52-.52.52s-.52-.23-.52-.52.23-.52.52-.52.52.23.52.52Z"/>
      <path class="cls-2" d="m410.18,177.35c0,.29-.23.52-.52.52s-.52-.23-.52-.52.23-.52.52-.52.52.23.52.52Z"/>
      <path class="cls-2" d="m12.91,263.1c0,.29-.23.52-.52.52s-.52-.23-.52-.52.23-.52.52-.52.52.23.52.52Z"/>
      <path class="cls-3" d="m185.66,177.35c0,.29-.23.52-.52.52s-.52-.23-.52-.52.23-.52.52-.52.52.23.52.52Z"/>
      <path class="cls-3" d="m369.22,174.49c0,.29-.23.52-.52.52s-.52-.23-.52-.52.23-.52.52-.52.52.23.52.52Z"/>
      <path class="cls-3" d="m549.82,181.96c0,.29-.23.52-.52.52s-.52-.23-.52-.52.23-.52.52-.52.52.23.52.52Z"/>
      <path class="cls-3" d="m369.74,226.5c0,.29-.23.52-.52.52s-.52-.23-.52-.52.23-.52.52-.52.52.23.52.52Z"/>
      <path class="cls-3" d="m429.68,242.26c0,.29-.23.52-.52.52s-.52-.23-.52-.52.23-.52.52-.52.52.23.52.52Z"/>
      <path class="cls-3" d="m670.09,212.25c0,.29-.23.52-.52.52s-.52-.23-.52-.52.23-.52.52-.52.52.23.52.52Z"/>
      <path class="cls-4" d="m242.49,103.97c0,.29-.23.52-.52.52s-.52-.23-.52-.52.23-.52.52-.52.52.23.52.52Z"/>
      <path class="cls-4" d="m191.95,91.52c0,.29-.23.52-.52.52s-.52-.23-.52-.52.23-.52.52-.52.52.23.52.52Z"/>
      <path class="cls-5" d="m962.82,136.82c0,.29-.23.52-.52.52s-.52-.23-.52-.52.23-.52.52-.52.52.23.52.52Z"/>
      <path class="cls-4" d="m1003.34,98.9c0,.29-.23.52-.52.52s-.52-.23-.52-.52.23-.52.52-.52.52.23.52.52Z"/>
      <path class="cls-4" d="m213.35,127.07c0,.29-.23.52-.52.52s-.52-.23-.52-.52.23-.52.52-.52.52.23.52.52Z"/>
      <circle class="cls-4" cx="557.32" cy="194.34" r=".52"/>
      <path class="cls-4" d="m578.01,204.24c0,.29-.23.52-.52.52s-.52-.23-.52-.52.23-.52.52-.52.52.23.52.52Z"/>
      <path class="cls-4" d="m736.43,98.03c0,.29-.23.52-.52.52s-.52-.23-.52-.52.23-.52.52-.52.52.23.52.52Z"/>
      <path class="cls-4" d="m1171.05,99.42c0,.29-.23.52-.52.52s-.52-.23-.52-.52.23-.52.52-.52.52.23.52.52Z"/>
      <path class="cls-4" d="m922.21,77.67c0,.29-.23.52-.52.52s-.52-.23-.52-.52.23-.52.52-.52.52.23.52.52Z"/>
      <path class="cls-4" d="m842.22,82.52c0,.29-.23.52-.52.52s-.52-.23-.52-.52.23-.52.52-.52.52.23.52.52Z"/>
      <path class="cls-4" d="m450.65,196.68c0,.29-.23.52-.52.52s-.52-.23-.52-.52.23-.52.52-.52.52.23.52.52Z"/>
      <path class="cls-4" d="m384.97,108.53c0,.29-.23.52-.52.52s-.52-.23-.52-.52.23-.52.52-.52.52.23.52.52Z"/>
      <path class="cls-4" d="m412.23,101.8c0,.29-.23.52-.52.52s-.52-.23-.52-.52.23-.52.52-.52.52.23.52.52Z"/>
      <path class="cls-5" d="m794.12,119.01c0,.29-.23.52-.52.52s-.52-.23-.52-.52.23-.52.52-.52.52.23.52.52Z"/>
      <path class="cls-5" d="m396.85,204.75c0,.29-.23.52-.52.52s-.52-.23-.52-.52.23-.52.52-.52.52.23.52.52Z"/>
      <path class="cls-4" d="m584.74,112.74c0,.29-.23.52-.52.52s-.52-.23-.52-.52.23-.52.52-.52.52.23.52.52Z"/>
      <path class="cls-4" d="m200.71,170.92c0,.29-.23.52-.52.52s-.52-.23-.52-.52.23-.52.52-.52.52.23.52.52Z"/>
      <path class="cls-4" d="m220.88,180.82c0,.29-.23.52-.52.52s-.52-.23-.52-.52.23-.52.52-.52.52.23.52.52Z"/>
      <path class="cls-4" d="m93.52,173.26c0,.29-.23.52-.52.52s-.52-.23-.52-.52.23-.52.52-.52.52.23.52.52Z"/>
      <path class="cls-4" d="m27.84,85.11c0,.29-.23.52-.52.52s-.52-.23-.52-.52.23-.52.52-.52.52.23.52.52Z"/>
      <path class="cls-4" d="m80.14,86.15c0,.29-.23.52-.52.52s-.52-.23-.52-.52.23-.52.52-.52.52.23.52.52Z"/>
      <path class="cls-5" d="m39.72,181.33c0,.29-.23.52-.52.52s-.52-.23-.52-.52.23-.52.52-.52.52.23.52.52Z"/>
      <path class="cls-4" d="m212.47,95.58c0,.29-.23.52-.52.52s-.52-.23-.52-.52.23-.52.52-.52.52.23.52.52Z"/>
      <path class="cls-4" d="m753.16,116.15c0,.29-.23.52-.52.52s-.52-.23-.52-.52.23-.52.52-.52.52.23.52.52Z"/>
      <path class="cls-4" d="m933.76,123.62c0,.29-.23.52-.52.52s-.52-.23-.52-.52.23-.52.52-.52.52.23.52.52Z"/>
      <path class="cls-4" d="m753.67,168.15c0,.29-.23.52-.52.52s-.52-.23-.52-.52.23-.52.52-.52.52.23.52.52Z"/>
      <path class="cls-4" d="m780.62,192.16c0,.29-.23.52-.52.52s-.52-.23-.52-.52.23-.52.52-.52.52.23.52.52Z"/>
      <path class="cls-4" d="m813.62,183.92c0,.29-.23.52-.52.52s-.52-.23-.52-.52.23-.52.52-.52.52.23.52.52Z"/>
      <circle class="cls-2" cx="573.36" cy="131.93" r=".52"/>
      <path class="cls-3" d="m347.5,93.13c0,.29-.23.52-.52.52s-.52-.23-.52-.52.23-.52.52-.52.52.23.52.52Z"/>
      <path class="cls-3" d="m533.27,72.78c0,.29-.23.52-.52.52s-.52-.23-.52-.52.23-.52.52-.52.52.23.52.52Z"/>
      <circle class="cls-3" cx="452.77" cy="77.63" r=".52"/>
      <circle class="cls-2" cx="404.66" cy="114.11" r=".52"/>
      <circle class="cls-3" cx="180.14" cy="114.11" r=".52"/>
      <path class="cls-3" d="m364.22,111.25c0,.29-.23.52-.52.52s-.52-.23-.52-.52.23-.52.52-.52.52.23.52.52Z"/>
      <path class="cls-3" d="m544.82,118.72c0,.29-.23.52-.52.52s-.52-.23-.52-.52.23-.52.52-.52.52.23.52.52Z"/>
      <path class="cls-4" d="m195.87,56.32c0,.29-.23.52-.52.52s-.52-.23-.52-.52.23-.52.52-.52.52.23.52.52Z"/>
      <path class="cls-4" d="m186.95,28.29c0,.29-.23.52-.52.52s-.52-.23-.52-.52.23-.52.52-.52.52.23.52.52Z"/>
      <path class="cls-4" d="m208.35,63.84c0,.29-.23.52-.52.52s-.52-.23-.52-.52.23-.52.52-.52.52.23.52.52Z"/>
      <path class="cls-4" d="m552.84,131.11c0,.29-.23.52-.52.52s-.52-.23-.52-.52.23-.52.52-.52.52.23.52.52Z"/>
      <path class="cls-4" d="m573.01,141c0,.29-.23.52-.52.52s-.52-.23-.52-.52.23-.52.52-.52.52.23.52.52Z"/>
      <path class="cls-4" d="m445.65,133.45c0,.29-.23.52-.52.52s-.52-.23-.52-.52.23-.52.52-.52.52.23.52.52Z"/>
      <path class="cls-4" d="m379.97,45.3c0,.29-.23.52-.52.52s-.52-.23-.52-.52.23-.52.52-.52.52.23.52.52Z"/>
      <path class="cls-4" d="m407.23,38.57c0,.29-.23.52-.52.52s-.52-.23-.52-.52.23-.52.52-.52.52.23.52.52Z"/>
      <path class="cls-5" d="m391.85,141.52c0,.29-.23.52-.52.52s-.52-.23-.52-.52.23-.52.52-.52.52.23.52.52Z"/>
      <circle class="cls-4" cx="564.08" cy="55.77" r=".52"/>
      <path class="cls-4" d="m230.85,113.6c0,.29-.23.52-.52.52s-.52-.23-.52-.52.23-.52.52-.52.52.23.52.52Z"/>
      <path class="cls-4" d="m265.22,137.22c0,.29-.23.52-.52.52s-.52-.23-.52-.52.23-.52.52-.52.52.23.52.52Z"/>
      <path class="cls-4" d="m88.52,110.03c0,.29-.23.52-.52.52s-.52-.23-.52-.52.23-.52.52-.52.52.23.52.52Z"/>
      <path class="cls-4" d="m75.14,22.91c0,.29-.23.52-.52.52s-.52-.23-.52-.52.23-.52.52-.52.52.23.52.52Z"/>
      <path class="cls-4" d="m207.47,32.35c0,.29-.23.52-.52.52s-.52-.23-.52-.52.23-.52.52-.52.52.23.52.52Z"/>
      <path class="cls-2" d="m137.34,176.04c0,.29-.23.52-.52.52s-.52-.23-.52-.52.23-.52.52-.52.52.23.52.52Z"/>
      <path class="cls-3" d="m177.86,138.12c0,.29-.23.52-.52.52s-.52-.23-.52-.52.23-.52.52-.52.52.23.52.52Z"/>
      <path class="cls-3" d="m345.57,138.64c0,.29-.23.52-.52.52s-.52-.23-.52-.52.23-.52.52-.52.52.23.52.52Z"/>
      <circle class="cls-3" cx="96.21" cy="116.89" r=".52"/>
      <path class="cls-3" d="m108.28,162.83c0,.29-.23.52-.52.52s-.52-.23-.52-.52.23-.52.52-.52.52.23.52.52Z"/>
      <path class="cls-3" d="m228.55,193.12c0,.29-.23.52-.52.52s-.52-.23-.52-.52.23-.52.52-.52.52.23.52.52Z"/>
      <path class="cls-5" d="m521.27,117.69c0,.29-.23.52-.52.52s-.52-.23-.52-.52.23-.52.52-.52.52.23.52.52Z"/>
      <path class="cls-4" d="m561.79,79.77c0,.29-.23.52-.52.52s-.52-.23-.52-.52.23-.52.52-.52.52.23.52.52Z"/>
      <path class="cls-4" d="m116.3,175.22c0,.29-.23.52-.52.52s-.52-.23-.52-.52.23-.52.52-.52.52.23.52.52Z"/>
      <path class="cls-4" d="m136.46,185.11c0,.29-.23.52-.52.52s-.52-.23-.52-.52.23-.52.52-.52.52.23.52.52Z"/>
      <circle class="cls-4" cx="294.37" cy="78.9" r=".52"/>
      <circle class="cls-4" cx="480.15" cy="58.54" r=".52"/>
      <path class="cls-4" d="m400.68,63.39c0,.29-.23.52-.52.52s-.52-.23-.52-.52.23-.52.52-.52.52.23.52.52Z"/>
      <path class="cls-5" d="m352.57,99.88c0,.29-.23.52-.52.52s-.52-.23-.52-.52.23-.52.52-.52.52.23.52.52Z"/>
      <path class="cls-4" d="m128.05,99.88c0,.29-.23.52-.52.52s-.52-.23-.52-.52.23-.52.52-.52.52.23.52.52Z"/>
      <path class="cls-4" d="m311.61,97.02c0,.29-.23.52-.52.52s-.52-.23-.52-.52.23-.52.52-.52.52.23.52.52Z"/>
      <path class="cls-4" d="m492.21,104.49c0,.29-.23.52-.52.52s-.52-.23-.52-.52.23-.52.52-.52.52.23.52.52Z"/>
      <path class="cls-4" d="m312.13,149.03c0,.29-.23.52-.52.52s-.52-.23-.52-.52.23-.52.52-.52.52.23.52.52Z"/>
      <path class="cls-4" d="m372.07,164.79c0,.29-.23.52-.52.52s-.52-.23-.52-.52.23-.52.52-.52.52.23.52.52Z"/>
      <path class="cls-2" d="m1178.73,140.09c0,.37-.3.66-.66.66s-.66-.3-.66-.66.3-.66.66-.66.66.3.66.66Z"/>
      <path class="cls-3" d="m889.19,90.48c0,.37-.3.66-.66.66s-.66-.3-.66-.66.3-.66.66-.66.66.3.66.66Z"/>
      <path class="cls-3" d="m1126.8,64.44c0,.37-.3.66-.66.66s-.66-.3-.66-.66.3-.66.66-.66.66.3.66.66Z"/>
      <circle class="cls-3" cx="1023.83" cy="70.65" r=".66"/>
      <circle class="cls-2" cx="962.3" cy="117.31" r=".66"/>
      <path class="cls-3" d="m675.81,117.31c0,.37-.3.66-.66.66s-.66-.3-.66-.66.3-.66.66-.66.66.3.66.66Z"/>
      <path class="cls-3" d="m910.58,113.65c0,.37-.3.66-.66.66s-.66-.3-.66-.66.3-.66.66-.66.66.3.66.66Z"/>
      <circle class="cls-3" cx="1140.9" cy="123.21" r=".66"/>
      <path class="cls-4" d="m695.26,43.39c0,.37-.3.66-.66.66s-.66-.3-.66-.66.3-.66.66-.66.66.3.66.66Z"/>
      <path class="cls-4" d="m683.85,7.54c0,.37-.3.66-.66.66s-.66-.3-.66-.66.3-.66.66-.66.66.3.66.66Z"/>
      <path class="cls-4" d="m711.22,53.01c0,.37-.3.66-.66.66s-.66-.3-.66-.66.3-.66.66-.66.66.3.66.66Z"/>
      <path class="cls-4" d="m1151.82,139.04c0,.37-.3.66-.66.66s-.66-.3-.66-.66.3-.66.66-.66.66.3.66.66Z"/>
      <path class="cls-4" d="m1177.61,151.69c0,.37-.3.66-.66.66s-.66-.3-.66-.66.3-.66.66-.66.66.3.66.66Z"/>
      <path class="cls-4" d="m1014.73,142.04c0,.37-.3.66-.66.66s-.66-.3-.66-.66.3-.66.66-.66.66.3.66.66Z"/>
      <path class="cls-4" d="m930.72,29.29c0,.37-.3.66-.66.66s-.66-.3-.66-.66.3-.66.66-.66.66.3.66.66Z"/>
      <path class="cls-4" d="m965.58,20.69c0,.37-.3.66-.66.66s-.66-.3-.66-.66.3-.66.66-.66.66.3.66.66Z"/>
      <path class="cls-5" d="m945.92,152.36c0,.37-.3.66-.66.66s-.66-.3-.66-.66.3-.66.66-.66.66.3.66.66Z"/>
      <circle class="cls-4" cx="1166.2" cy="42.69" r=".66"/>
      <path class="cls-4" d="m695.06,109.09c0,.37-.3.66-.66.66s-.66-.3-.66-.66.3-.66.66-.66.66.3.66.66Z"/>
      <path class="cls-4" d="m720.85,121.74c0,.37-.3.66-.66.66s-.66-.3-.66-.66.3-.66.66-.66.66.3.66.66Z"/>
      <circle class="cls-4" cx="557.3" cy="112.08" r=".66"/>
      <circle class="cls-4" cx="540.19" cy=".66" r=".66"/>
      <path class="cls-4" d="m710.1,12.73c0,.37-.3.66-.66.66s-.66-.3-.66-.66.3-.66.66-.66.66.3.66.66Z"/>
      <path class="cls-2" d="m620.4,196.51c0,.37-.3.66-.66.66s-.66-.3-.66-.66.3-.66.66-.66.66.3.66.66Z"/>
      <path class="cls-3" d="m672.23,148.01c0,.37-.3.66-.66.66s-.66-.3-.66-.66.3-.66.66-.66.66.3.66.66Z"/>
      <path class="cls-3" d="m886.73,148.67c0,.37-.3.66-.66.66s-.66-.3-.66-.66.3-.66.66-.66.66.3.66.66Z"/>
      <circle class="cls-3" cx="567.8" cy="120.86" r=".66"/>
      <path class="cls-3" d="m583.23,179.62c0,.37-.3.66-.66.66s-.66-.3-.66-.66.3-.66.66-.66.66.3.66.66Z"/>
      <path class="cls-3" d="m737.06,218.36c0,.37-.3.66-.66.66s-.66-.3-.66-.66.3-.66.66-.66.66.3.66.66Z"/>
      <path class="cls-5" d="m1111.45,121.88c0,.37-.3.66-.66.66s-.66-.3-.66-.66.3-.66.66-.66.66.3.66.66Z"/>
      <path class="cls-4" d="m1163.27,73.39c0,.37-.3.66-.66.66s-.66-.3-.66-.66.3-.66.66-.66.66.3.66.66Z"/>
      <circle class="cls-4" cx="592.83" cy="195.46" r=".66"/>
      <path class="cls-4" d="m619.28,208.11c0,.37-.3.66-.66.66s-.66-.3-.66-.66.3-.66.66-.66.66.3.66.66Z"/>
      <path class="cls-4" d="m821.91,72.27c0,.37-.3.66-.66.66s-.66-.3-.66-.66.3-.66.66-.66.66.3.66.66Z"/>
      <path class="cls-4" d="m1059.51,46.24c0,.37-.3.66-.66.66s-.66-.3-.66-.66.3-.66.66-.66.66.3.66.66Z"/>
      <path class="cls-4" d="m957.21,52.44c0,.37-.3.66-.66.66s-.66-.3-.66-.66.3-.66.66-.66.66.3.66.66Z"/>
      <path class="cls-5" d="m895.68,99.1c0,.37-.3.66-.66.66s-.66-.3-.66-.66.3-.66.66-.66.66.3.66.66Z"/>
      <path class="cls-4" d="m608.53,99.1c0,.37-.3.66-.66.66s-.66-.3-.66-.66.3-.66.66-.66.66.3.66.66Z"/>
      <path class="cls-4" d="m843.29,95.45c0,.37-.3.66-.66.66s-.66-.3-.66-.66.3-.66.66-.66.66.3.66.66Z"/>
      <circle class="cls-4" cx="1073.62" cy="105" r=".66"/>
      <path class="cls-4" d="m1101.46,195.46c0,.37-.3.66-.66.66s-.66-.3-.66-.66.3-.66.66-.66.66.3.66.66Z"/>
      <path class="cls-4" d="m843.96,161.96c0,.37-.3.66-.66.66s-.66-.3-.66-.66.3-.66.66-.66.66.3.66.66Z"/>
      <circle class="cls-4" cx="919.96" cy="182.13" r=".66"/>
      <path class="cls-4" d="m1054.03,153.91c0,.29-.23.52-.52.52s-.52-.23-.52-.52.23-.52.52-.52.52.23.52.52Z"/>
    </g>
  </g>
</svg>