<?xml version="1.0" encoding="UTF-8"?>
<svg id="Layer_2" data-name="Layer 2" xmlns="http://www.w3.org/2000/svg" viewBox="0 0 1410.82 360.5">
  <defs>
    <style>
      .cls-1, .cls-2, .cls-3 {
        opacity: .5;
      }

      .cls-4, .cls-3 {
        fill: #50ffff;
      }

      .cls-2, .cls-5 {
        fill: #5095ff;
      }
    </style>
  </defs>
  <g id="layer1">
    <g>
      <g class="cls-1">
        <path class="cls-2" d="m1131.47,247.94c0,.29-.23.52-.52.52s-.52-.23-.52-.52.23-.52.52-.52.52.23.52.52Z"/>
        <path class="cls-3" d="m1171.99,210.02c0,.29-.23.52-.52.52s-.52-.23-.52-.52.23-.52.52-.52.52.23.52.52Z"/>
        <path class="cls-3" d="m905.09,209.15c0,.29-.23.52-.52.52s-.52-.23-.52-.52.23-.52.52-.52.52.23.52.52Z"/>
        <path class="cls-3" d="m1090.86,188.79c0,.29-.23.52-.52.52s-.52-.23-.52-.52.23-.52.52-.52.52.23.52.52Z"/>
        <path class="cls-3" d="m1010.87,193.64c0,.29-.23.52-.52.52s-.52-.23-.52-.52.23-.52.52-.52.52.23.52.52Z"/>
        <path class="cls-3" d="m553.62,219.65c0,.29-.23.52-.52.52s-.52-.23-.52-.52.23-.52.52-.52.52.23.52.52Z"/>
        <circle class="cls-3" cx="580.36" cy="212.92" r=".52"/>
        <path class="cls-2" d="m962.77,230.12c0,.29-.23.52-.52.52s-.52-.23-.52-.52.23-.52.52-.52.52.23.52.52Z"/>
        <path class="cls-3" d="m738.25,230.12c0,.29-.23.52-.52.52s-.52-.23-.52-.52.23-.52.52-.52.52.23.52.52Z"/>
        <path class="cls-3" d="m921.81,227.27c0,.29-.23.52-.52.52s-.52-.23-.52-.52.23-.52.52-.52.52.23.52.52Z"/>
        <path class="cls-3" d="m1102.41,234.73c0,.29-.23.52-.52.52s-.52-.23-.52-.52.23-.52.52-.52.52.23.52.52Z"/>
        <path class="cls-3" d="m1222.68,265.02c0,.29-.23.52-.52.52s-.52-.23-.52-.52.23-.52.52-.52.52.23.52.52Z"/>
        <path class="cls-4" d="m753.46,172.33c0,.29-.23.52-.52.52s-.52-.23-.52-.52.23-.52.52-.52.52.23.52.52Z"/>
        <path class="cls-4" d="m744.54,144.3c0,.29-.23.52-.52.52s-.52-.23-.52-.52.23-.52.52-.52.52.23.52.52Z"/>
        <path class="cls-4" d="m765.94,179.85c0,.29-.23.52-.52.52s-.52-.23-.52-.52.23-.52.52-.52.52.23.52.52Z"/>
        <path class="cls-4" d="m1110.43,247.12c0,.29-.23.52-.52.52s-.52-.23-.52-.52.23-.52.52-.52.52.23.52.52Z"/>
        <path class="cls-4" d="m1130.6,257.01c0,.29-.23.52-.52.52s-.52-.23-.52-.52.23-.52.52-.52.52.23.52.52Z"/>
        <path class="cls-4" d="m1003.24,249.46c0,.29-.23.52-.52.52s-.52-.23-.52-.52.23-.52.52-.52.52.23.52.52Z"/>
        <path class="cls-4" d="m937.56,161.31c0,.29-.23.52-.52.52s-.52-.23-.52-.52.23-.52.52-.52.52.23.52.52Z"/>
        <path class="cls-4" d="m964.82,154.58c0,.29-.23.52-.52.52s-.52-.23-.52-.52.23-.52.52-.52.52.23.52.52Z"/>
        <circle class="cls-5" cx="948.92" cy="257.53" r=".52"/>
        <path class="cls-4" d="m1122.19,171.78c0,.29-.23.52-.52.52s-.52-.23-.52-.52.23-.52.52-.52.52.23.52.52Z"/>
        <path class="cls-4" d="m1258.69,303.35c0,.29-.23.52-.52.52s-.52-.23-.52-.52.23-.52.52-.52.52.23.52.52Z"/>
        <path class="cls-4" d="m753.3,223.7c0,.29-.23.52-.52.52s-.52-.23-.52-.52.23-.52.52-.52.52.23.52.52Z"/>
        <path class="cls-4" d="m773.47,233.59c0,.29-.23.52-.52.52s-.52-.23-.52-.52.23-.52.52-.52.52.23.52.52Z"/>
        <path class="cls-4" d="m646.11,226.04c0,.29-.23.52-.52.52s-.52-.23-.52-.52.23-.52.52-.52.52.23.52.52Z"/>
        <path class="cls-4" d="m580.43,137.89c0,.29-.23.52-.52.52s-.52-.23-.52-.52.23-.52.52-.52.52.23.52.52Z"/>
        <path class="cls-4" d="m632.73,138.92c0,.29-.23.52-.52.52s-.52-.23-.52-.52.23-.52.52-.52.52.23.52.52Z"/>
        <path class="cls-5" d="m592.31,234.11c0,.29-.23.52-.52.52s-.52-.23-.52-.52.23-.52.52-.52.52.23.52.52Z"/>
        <path class="cls-4" d="m765.06,148.36c0,.29-.23.52-.52.52s-.52-.23-.52-.52.23-.52.52-.52.52.23.52.52Z"/>
        <path class="cls-2" d="m694.93,292.05c0,.29-.23.52-.52.52s-.52-.23-.52-.52.23-.52.52-.52.52.23.52.52Z"/>
        <path class="cls-3" d="m735.45,254.13c0,.29-.23.52-.52.52s-.52-.23-.52-.52.23-.52.52-.52.52.23.52.52Z"/>
        <circle class="cls-3" cx="289.43" cy="349.57" r=".52"/>
        <circle class="cls-3" cx="309.6" cy="359.46" r=".52"/>
        <path class="cls-3" d="m468.55,253.26c0,.29-.23.52-.52.52s-.52-.23-.52-.52.23-.52.52-.52.52.23.52.52Z"/>
        <path class="cls-3" d="m903.16,254.65c0,.29-.23.52-.52.52s-.52-.23-.52-.52.23-.52.52-.52.52.23.52.52Z"/>
        <path class="cls-3" d="m1216.7,327.16c0,.29-.23.52-.52.52s-.52-.23-.52-.52.23-.52.52-.52.52.23.52.52Z"/>
        <path class="cls-3" d="m654.32,232.9c0,.29-.23.52-.52.52s-.52-.23-.52-.52.23-.52.52-.52.52.23.52.52Z"/>
        <path class="cls-3" d="m574.33,237.75c0,.29-.23.52-.52.52s-.52-.23-.52-.52.23-.52.52-.52.52.23.52.52Z"/>
        <circle class="cls-3" cx="182.24" cy="351.91" r=".52"/>
        <path class="cls-3" d="m117.08,263.76c0,.29-.23.52-.52.52s-.52-.23-.52-.52.23-.52.52-.52.52.23.52.52Z"/>
        <path class="cls-3" d="m144.34,257.03c0,.29-.23.52-.52.52s-.52-.23-.52-.52.23-.52.52-.52.52.23.52.52Z"/>
        <path class="cls-2" d="m526.23,274.23c0,.29-.23.52-.52.52s-.52-.23-.52-.52.23-.52.52-.52.52.23.52.52Z"/>
        <path class="cls-2" d="m128.96,359.98c0,.29-.23.52-.52.52s-.52-.23-.52-.52.23-.52.52-.52.52.23.52.52Z"/>
        <path class="cls-3" d="m301.71,274.23c0,.29-.23.52-.52.52s-.52-.23-.52-.52.23-.52.52-.52.52.23.52.52Z"/>
        <path class="cls-3" d="m485.27,271.38c0,.29-.23.52-.52.52s-.52-.23-.52-.52.23-.52.52-.52.52.23.52.52Z"/>
        <path class="cls-3" d="m665.87,278.84c0,.29-.23.52-.52.52s-.52-.23-.52-.52.23-.52.52-.52.52.23.52.52Z"/>
        <path class="cls-3" d="m485.78,323.38c0,.29-.23.52-.52.52s-.52-.23-.52-.52.23-.52.52-.52.52.23.52.52Z"/>
        <path class="cls-3" d="m545.73,339.15c0,.29-.23.52-.52.52s-.52-.23-.52-.52.23-.52.52-.52.52.23.52.52Z"/>
        <path class="cls-3" d="m786.14,309.13c0,.29-.23.52-.52.52s-.52-.23-.52-.52.23-.52.52-.52.52.23.52.52Z"/>
        <path class="cls-4" d="m358.54,200.86c0,.29-.23.52-.52.52s-.52-.23-.52-.52.23-.52.52-.52.52.23.52.52Z"/>
        <path class="cls-4" d="m308,188.41c0,.29-.23.52-.52.52s-.52-.23-.52-.52.23-.52.52-.52.52.23.52.52Z"/>
        <path class="cls-5" d="m1078.86,233.7c0,.29-.23.52-.52.52s-.52-.23-.52-.52.23-.52.52-.52.52.23.52.52Z"/>
        <path class="cls-4" d="m1119.38,195.79c0,.29-.23.52-.52.52s-.52-.23-.52-.52.23-.52.52-.52.52.23.52.52Z"/>
        <path class="cls-4" d="m329.4,223.96c0,.29-.23.52-.52.52s-.52-.23-.52-.52.23-.52.52-.52.52.23.52.52Z"/>
        <circle class="cls-4" cx="673.37" cy="291.23" r=".52"/>
        <path class="cls-4" d="m694.05,301.12c0,.29-.23.52-.52.52s-.52-.23-.52-.52.23-.52.52-.52.52.23.52.52Z"/>
        <path class="cls-4" d="m852.48,194.91c0,.29-.23.52-.52.52s-.52-.23-.52-.52.23-.52.52-.52.52.23.52.52Z"/>
        <path class="cls-4" d="m1287.1,196.3c0,.29-.23.52-.52.52s-.52-.23-.52-.52.23-.52.52-.52.52.23.52.52Z"/>
        <path class="cls-4" d="m1038.26,174.55c0,.29-.23.52-.52.52s-.52-.23-.52-.52.23-.52.52-.52.52.23.52.52Z"/>
        <path class="cls-4" d="m958.27,179.41c0,.29-.23.52-.52.52s-.52-.23-.52-.52.23-.52.52-.52.52.23.52.52Z"/>
        <path class="cls-4" d="m566.7,293.57c0,.29-.23.52-.52.52s-.52-.23-.52-.52.23-.52.52-.52.52.23.52.52Z"/>
        <path class="cls-4" d="m501.02,205.42c0,.29-.23.52-.52.52s-.52-.23-.52-.52.23-.52.52-.52.52.23.52.52Z"/>
        <path class="cls-4" d="m528.27,198.69c0,.29-.23.52-.52.52s-.52-.23-.52-.52.23-.52.52-.52.52.23.52.52Z"/>
        <path class="cls-5" d="m910.16,215.89c0,.29-.23.52-.52.52s-.52-.23-.52-.52.23-.52.52-.52.52.23.52.52Z"/>
        <path class="cls-5" d="m512.9,301.64c0,.29-.23.52-.52.52s-.52-.23-.52-.52.23-.52.52-.52.52.23.52.52Z"/>
        <path class="cls-4" d="m700.79,209.63c0,.29-.23.52-.52.52s-.52-.23-.52-.52.23-.52.52-.52.52.23.52.52Z"/>
        <path class="cls-4" d="m316.76,267.81c0,.29-.23.52-.52.52s-.52-.23-.52-.52.23-.52.52-.52.52.23.52.52Z"/>
        <path class="cls-4" d="m336.92,277.7c0,.29-.23.52-.52.52s-.52-.23-.52-.52.23-.52.52-.52.52.23.52.52Z"/>
        <path class="cls-4" d="m209.57,270.15c0,.29-.23.52-.52.52s-.52-.23-.52-.52.23-.52.52-.52.52.23.52.52Z"/>
        <path class="cls-4" d="m143.89,182c0,.29-.23.52-.52.52s-.52-.23-.52-.52.23-.52.52-.52.52.23.52.52Z"/>
        <path class="cls-4" d="m196.19,183.03c0,.29-.23.52-.52.52s-.52-.23-.52-.52.23-.52.52-.52.52.23.52.52Z"/>
        <path class="cls-5" d="m155.77,278.22c0,.29-.23.52-.52.52s-.52-.23-.52-.52.23-.52.52-.52.52.23.52.52Z"/>
        <path class="cls-4" d="m328.51,192.47c0,.29-.23.52-.52.52s-.52-.23-.52-.52.23-.52.52-.52.52.23.52.52Z"/>
        <path class="cls-4" d="m869.2,213.03c0,.29-.23.52-.52.52s-.52-.23-.52-.52.23-.52.52-.52.52.23.52.52Z"/>
        <path class="cls-4" d="m1049.8,220.5c0,.29-.23.52-.52.52s-.52-.23-.52-.52.23-.52.52-.52.52.23.52.52Z"/>
        <path class="cls-4" d="m869.72,265.04c0,.29-.23.52-.52.52s-.52-.23-.52-.52.23-.52.52-.52.52.23.52.52Z"/>
        <path class="cls-4" d="m896.67,289.05c0,.29-.23.52-.52.52s-.52-.23-.52-.52.23-.52.52-.52.52.23.52.52Z"/>
        <path class="cls-4" d="m929.66,280.8c0,.29-.23.52-.52.52s-.52-.23-.52-.52.23-.52.52-.52.52.23.52.52Z"/>
        <circle class="cls-2" cx="689.41" cy="228.81" r=".52"/>
        <path class="cls-3" d="m463.54,190.02c0,.29-.23.52-.52.52s-.52-.23-.52-.52.23-.52.52-.52.52.23.52.52Z"/>
        <path class="cls-3" d="m649.32,169.66c0,.29-.23.52-.52.52s-.52-.23-.52-.52.23-.52.52-.52.52.23.52.52Z"/>
        <circle class="cls-3" cx="568.81" cy="174.51" r=".52"/>
        <circle class="cls-2" cx="520.71" cy="211" r=".52"/>
        <circle class="cls-3" cx="296.19" cy="211" r=".52"/>
        <path class="cls-3" d="m480.26,208.14c0,.29-.23.52-.52.52s-.52-.23-.52-.52.23-.52.52-.52.52.23.52.52Z"/>
        <path class="cls-3" d="m660.87,215.61c0,.29-.23.52-.52.52s-.52-.23-.52-.52.23-.52.52-.52.52.23.52.52Z"/>
        <path class="cls-4" d="m311.91,153.2c0,.29-.23.52-.52.52s-.52-.23-.52-.52.23-.52.52-.52.52.23.52.52Z"/>
        <path class="cls-4" d="m302.99,125.17c0,.29-.23.52-.52.52s-.52-.23-.52-.52.23-.52.52-.52.52.23.52.52Z"/>
        <path class="cls-4" d="m324.39,160.72c0,.29-.23.52-.52.52s-.52-.23-.52-.52.23-.52.52-.52.52.23.52.52Z"/>
        <path class="cls-4" d="m668.89,227.99c0,.29-.23.52-.52.52s-.52-.23-.52-.52.23-.52.52-.52.52.23.52.52Z"/>
        <path class="cls-4" d="m689.05,237.88c0,.29-.23.52-.52.52s-.52-.23-.52-.52.23-.52.52-.52.52.23.52.52Z"/>
        <path class="cls-4" d="m561.7,230.33c0,.29-.23.52-.52.52s-.52-.23-.52-.52.23-.52.52-.52.52.23.52.52Z"/>
        <path class="cls-4" d="m496.01,142.18c0,.29-.23.52-.52.52s-.52-.23-.52-.52.23-.52.52-.52.52.23.52.52Z"/>
        <path class="cls-4" d="m523.27,135.45c0,.29-.23.52-.52.52s-.52-.23-.52-.52.23-.52.52-.52.52.23.52.52Z"/>
        <path class="cls-5" d="m507.89,238.4c0,.29-.23.52-.52.52s-.52-.23-.52-.52.23-.52.52-.52.52.23.52.52Z"/>
        <circle class="cls-4" cx="680.13" cy="152.65" r=".52"/>
        <path class="cls-4" d="m346.9,210.48c0,.29-.23.52-.52.52s-.52-.23-.52-.52.23-.52.52-.52.52.23.52.52Z"/>
        <path class="cls-4" d="m381.26,234.11c0,.29-.23.52-.52.52s-.52-.23-.52-.52.23-.52.52-.52.52.23.52.52Z"/>
        <path class="cls-4" d="m204.57,206.91c0,.29-.23.52-.52.52s-.52-.23-.52-.52.23-.52.52-.52.52.23.52.52Z"/>
        <path class="cls-4" d="m191.19,119.79c0,.29-.23.52-.52.52s-.52-.23-.52-.52.23-.52.52-.52.52.23.52.52Z"/>
        <path class="cls-4" d="m323.51,129.23c0,.29-.23.52-.52.52s-.52-.23-.52-.52.23-.52.52-.52.52.23.52.52Z"/>
        <path class="cls-2" d="m253.38,272.92c0,.29-.23.52-.52.52s-.52-.23-.52-.52.23-.52.52-.52.52.23.52.52Z"/>
        <path class="cls-3" d="m293.9,235c0,.29-.23.52-.52.52s-.52-.23-.52-.52.23-.52.52-.52.52.23.52.52Z"/>
        <path class="cls-3" d="m461.62,235.52c0,.29-.23.52-.52.52s-.52-.23-.52-.52.23-.52.52-.52.52.23.52.52Z"/>
        <circle class="cls-3" cx="212.26" cy="213.77" r=".52"/>
        <path class="cls-3" d="m224.32,259.72c0,.29-.23.52-.52.52s-.52-.23-.52-.52.23-.52.52-.52.52.23.52.52Z"/>
        <path class="cls-3" d="m344.59,290.01c0,.29-.23.52-.52.52s-.52-.23-.52-.52.23-.52.52-.52.52.23.52.52Z"/>
        <path class="cls-5" d="m637.32,214.58c0,.29-.23.52-.52.52s-.52-.23-.52-.52.23-.52.52-.52.52.23.52.52Z"/>
        <path class="cls-4" d="m677.84,176.66c0,.29-.23.52-.52.52s-.52-.23-.52-.52.23-.52.52-.52.52.23.52.52Z"/>
        <path class="cls-4" d="m232.34,272.1c0,.29-.23.52-.52.52s-.52-.23-.52-.52.23-.52.52-.52.52.23.52.52Z"/>
        <path class="cls-4" d="m252.51,281.99c0,.29-.23.52-.52.52s-.52-.23-.52-.52.23-.52.52-.52.52.23.52.52Z"/>
        <circle class="cls-4" cx="410.42" cy="175.78" r=".52"/>
        <circle class="cls-4" cx="596.19" cy="155.43" r=".52"/>
        <path class="cls-4" d="m516.72,160.28c0,.29-.23.52-.52.52s-.52-.23-.52-.52.23-.52.52-.52.52.23.52.52Z"/>
        <path class="cls-5" d="m468.62,196.76c0,.29-.23.52-.52.52s-.52-.23-.52-.52.23-.52.52-.52.52.23.52.52Z"/>
        <path class="cls-4" d="m244.1,196.76c0,.29-.23.52-.52.52s-.52-.23-.52-.52.23-.52.52-.52.52.23.52.52Z"/>
        <path class="cls-4" d="m427.66,193.9c0,.29-.23.52-.52.52s-.52-.23-.52-.52.23-.52.52-.52.52.23.52.52Z"/>
        <path class="cls-4" d="m608.26,201.37c0,.29-.23.52-.52.52s-.52-.23-.52-.52.23-.52.52-.52.52.23.52.52Z"/>
        <path class="cls-4" d="m428.17,245.91c0,.29-.23.52-.52.52s-.52-.23-.52-.52.23-.52.52-.52.52.23.52.52Z"/>
        <path class="cls-4" d="m488.12,261.68c0,.29-.23.52-.52.52s-.52-.23-.52-.52.23-.52.52-.52.52.23.52.52Z"/>
        <path class="cls-2" d="m1294.78,236.97c0,.37-.3.66-.66.66s-.66-.3-.66-.66.3-.66.66-.66.66.3.66.66Z"/>
        <path class="cls-3" d="m1005.24,187.36c0,.37-.3.66-.66.66s-.66-.3-.66-.66.3-.66.66-.66.66.3.66.66Z"/>
        <path class="cls-3" d="m1242.84,161.32c0,.37-.3.66-.66.66s-.66-.3-.66-.66.3-.66.66-.66.66.3.66.66Z"/>
        <circle class="cls-3" cx="1139.88" cy="167.53" r=".66"/>
        <circle class="cls-2" cx="1078.35" cy="214.19" r=".66"/>
        <path class="cls-3" d="m791.86,214.19c0,.37-.3.66-.66.66s-.66-.3-.66-.66.3-.66.66-.66.66.3.66.66Z"/>
        <path class="cls-3" d="m1026.62,210.54c0,.37-.3.66-.66.66s-.66-.3-.66-.66.3-.66.66-.66.66.3.66.66Z"/>
        <circle class="cls-3" cx="1256.95" cy="220.09" r=".66"/>
        <path class="cls-4" d="m811.31,140.27c0,.37-.3.66-.66.66s-.66-.3-.66-.66.3-.66.66-.66.66.3.66.66Z"/>
        <path class="cls-4" d="m799.9,104.42c0,.37-.3.66-.66.66s-.66-.3-.66-.66.3-.66.66-.66.66.3.66.66Z"/>
        <path class="cls-4" d="m827.27,149.89c0,.37-.3.66-.66.66s-.66-.3-.66-.66.3-.66.66-.66.66.3.66.66Z"/>
        <path class="cls-4" d="m1267.87,235.93c0,.37-.3.66-.66.66s-.66-.3-.66-.66.3-.66.66-.66.66.3.66.66Z"/>
        <path class="cls-4" d="m1293.66,248.58c0,.37-.3.66-.66.66s-.66-.3-.66-.66.3-.66.66-.66.66.3.66.66Z"/>
        <path class="cls-4" d="m1130.77,238.92c0,.37-.3.66-.66.66s-.66-.3-.66-.66.3-.66.66-.66.66.3.66.66Z"/>
        <path class="cls-4" d="m1046.77,126.18c0,.37-.3.66-.66.66s-.66-.3-.66-.66.3-.66.66-.66.66.3.66.66Z"/>
        <path class="cls-4" d="m1081.63,117.57c0,.37-.3.66-.66.66s-.66-.3-.66-.66.3-.66.66-.66.66.3.66.66Z"/>
        <path class="cls-5" d="m1061.96,249.24c0,.37-.3.66-.66.66s-.66-.3-.66-.66.3-.66.66-.66.66.3.66.66Z"/>
        <circle class="cls-4" cx="1282.24" cy="139.57" r=".66"/>
        <path class="cls-4" d="m811.11,205.97c0,.37-.3.66-.66.66s-.66-.3-.66-.66.3-.66.66-.66.66.3.66.66Z"/>
        <path class="cls-4" d="m836.9,218.62c0,.37-.3.66-.66.66s-.66-.3-.66-.66.3-.66.66-.66.66.3.66.66Z"/>
        <circle class="cls-4" cx="673.35" cy="208.97" r=".66"/>
        <circle class="cls-4" cx="656.24" cy="97.55" r=".66"/>
        <path class="cls-4" d="m826.14,109.62c0,.37-.3.66-.66.66s-.66-.3-.66-.66.3-.66.66-.66.66.3.66.66Z"/>
        <path class="cls-2" d="m736.45,293.39c0,.37-.3.66-.66.66s-.66-.3-.66-.66.3-.66.66-.66.66.3.66.66Z"/>
        <path class="cls-3" d="m788.27,244.9c0,.37-.3.66-.66.66s-.66-.3-.66-.66.3-.66.66-.66.66.3.66.66Z"/>
        <path class="cls-3" d="m1002.78,245.56c0,.37-.3.66-.66.66s-.66-.3-.66-.66.3-.66.66-.66.66.3.66.66Z"/>
        <circle class="cls-3" cx="683.85" cy="217.74" r=".66"/>
        <path class="cls-3" d="m699.28,276.51c0,.37-.3.66-.66.66s-.66-.3-.66-.66.3-.66.66-.66.66.3.66.66Z"/>
        <path class="cls-3" d="m853.1,315.24c0,.37-.3.66-.66.66s-.66-.3-.66-.66.3-.66.66-.66.66.3.66.66Z"/>
        <path class="cls-5" d="m1227.49,218.77c0,.37-.3.66-.66.66s-.66-.3-.66-.66.3-.66.66-.66.66.3.66.66Z"/>
        <path class="cls-4" d="m1279.32,170.27c0,.37-.3.66-.66.66s-.66-.3-.66-.66.3-.66.66-.66.66.3.66.66Z"/>
        <circle class="cls-4" cx="708.88" cy="292.34" r=".66"/>
        <path class="cls-4" d="m735.33,304.99c0,.37-.3.66-.66.66s-.66-.3-.66-.66.3-.66.66-.66.66.3.66.66Z"/>
        <path class="cls-4" d="m937.95,169.16c0,.37-.3.66-.66.66s-.66-.3-.66-.66.3-.66.66-.66.66.3.66.66Z"/>
        <path class="cls-4" d="m1175.56,143.12c0,.37-.3.66-.66.66s-.66-.3-.66-.66.3-.66.66-.66.66.3.66.66Z"/>
        <path class="cls-4" d="m1073.25,149.32c0,.37-.3.66-.66.66s-.66-.3-.66-.66.3-.66.66-.66.66.3.66.66Z"/>
        <path class="cls-5" d="m1011.73,195.99c0,.37-.3.66-.66.66s-.66-.3-.66-.66.3-.66.66-.66.66.3.66.66Z"/>
        <path class="cls-4" d="m724.57,195.99c0,.37-.3.66-.66.66s-.66-.3-.66-.66.3-.66.66-.66.66.3.66.66Z"/>
        <path class="cls-4" d="m959.34,192.33c0,.37-.3.66-.66.66s-.66-.3-.66-.66.3-.66.66-.66.66.3.66.66Z"/>
        <circle class="cls-4" cx="1189.67" cy="201.88" r=".66"/>
        <path class="cls-4" d="m1217.5,292.34c0,.37-.3.66-.66.66s-.66-.3-.66-.66.3-.66.66-.66.66.3.66.66Z"/>
        <path class="cls-4" d="m960,258.84c0,.37-.3.66-.66.66s-.66-.3-.66-.66.3-.66.66-.66.66.3.66.66Z"/>
        <circle class="cls-4" cx="1036.01" cy="279.01" r=".66"/>
        <path class="cls-4" d="m1170.07,250.79c0,.29-.23.52-.52.52s-.52-.23-.52-.52.23-.52.52-.52.52.23.52.52Z"/>
      </g>
      <g>
        <path class="cls-2" d="m195.46,134.73c0-.34.28-.62.62-.62s.62.28.62.62-.28.62-.62.62-.62-.28-.62-.62Z"/>
        <path class="cls-3" d="m146.96,180.11c0-.34.28-.62.62-.62s.62.28.62.62-.28.62-.62.62-.62-.28-.62-.62Z"/>
        <path class="cls-3" d="m466.42,181.15c0-.34.28-.62.62-.62s.62.28.62.62-.28.62-.62.62-.62-.28-.62-.62Z"/>
        <circle class="cls-3" cx="238.57" cy="160.34" r=".62"/>
        <path class="cls-3" d="m333.69,154.53c0-.34.28-.62.62-.62s.62.28.62.62-.28.62-.62.62-.62-.28-.62-.62Z"/>
        <path class="cls-3" d="m887.09,168.58c0-.34.28-.62.62-.62s.62.28.62.62-.28.62-.62.62-.62-.28-.62-.62Z"/>
        <path class="cls-3" d="m854.46,176.63c0-.34.28-.62.62-.62s.62.28.62.62-.28.62-.62.62-.62-.28-.62-.62Z"/>
        <circle class="cls-2" cx="398" cy="156.05" r=".62"/>
        <circle class="cls-3" cx="666.72" cy="156.05" r=".62"/>
        <path class="cls-3" d="m446.41,159.47c0-.34.28-.62.62-.62s.62.28.62.62-.28.62-.62.62-.62-.28-.62-.62Z"/>
        <path class="cls-3" d="m143.73,109.49c0-.34.28-.62.62-.62s.62.28.62.62-.28.62-.62.62-.62-.28-.62-.62Z"/>
        <path class="cls-3" d="m86.29,114.27c0-.34.28-.62.62-.62s.62.28.62.62-.28.62-.62.62-.62-.28-.62-.62Z"/>
        <circle class="cls-4" cx="648.52" cy="225.22" r=".62"/>
        <circle class="cls-4" cx="659.2" cy="258.77" r=".62"/>
        <path class="cls-4" d="m632.96,216.22c0-.34.28-.62.62-.62s.62.28.62.62-.28.62-.62.62-.62-.28-.62-.62Z"/>
        <path class="cls-4" d="m134.13,94.67c0-.34.28-.62.62-.62s.62.28.62.62-.28.62-.62.62-.62-.28-.62-.62Z"/>
        <path class="cls-4" d="m196.51,123.87c0-.34.28-.62.62-.62s.62.28.62.62-.28.62-.62.62-.62-.28-.62-.62Z"/>
        <circle class="cls-4" cx="343.45" cy="87.72" r=".62"/>
        <circle class="cls-4" cx="428.17" cy="238.41" r=".62"/>
        <path class="cls-4" d="m388.82,201.29c0-.34.28-.62.62-.62s.62.28.62.62-.28.62-.62.62-.62-.28-.62-.62Z"/>
        <circle class="cls-5" cx="413.95" cy="123.25" r=".62"/>
        <circle class="cls-4" cx="207.19" cy="225.88" r=".62"/>
        <circle class="cls-4" cx="43.81" cy="68.4" r=".62"/>
        <path class="cls-4" d="m648.09,163.74c0-.34.28-.62.62-.62s.62.28.62.62-.28.62-.62.62-.62-.28-.62-.62Z"/>
        <path class="cls-4" d="m623.96,151.9c0-.34.28-.62.62-.62s.62.28.62.62-.28.62-.62.62-.62-.28-.62-.62Z"/>
        <path class="cls-4" d="m776.39,160.93c0-.34.28-.62.62-.62s.62.28.62.62-.28.62-.62.62-.62-.28-.62-.62Z"/>
        <circle class="cls-4" cx="855.62" cy="266.44" r=".62"/>
        <path class="cls-4" d="m792.4,265.21c0-.34.28-.62.62-.62s.62.28.62.62-.28.62-.62.62-.62-.28-.62-.62Z"/>
        <path class="cls-5" d="m840.78,151.28c0-.34.28-.62.62-.62s.62.28.62.62-.28.62-.62.62-.62-.28-.62-.62Z"/>
        <circle class="cls-4" cx="634.64" cy="253.91" r=".62"/>
        <path class="cls-2" d="m717.96,81.93c0-.34.28-.62.62-.62s.62.28.62.62-.28.62-.62.62-.62-.28-.62-.62Z"/>
        <path class="cls-3" d="m669.46,127.31c0-.34.28-.62.62-.62s.62.28.62.62-.28.62-.62.62-.62-.28-.62-.62Z"/>
        <path class="cls-3" d="m1202.67,13.08c0-.34.28-.62.62-.62s.62.28.62.62-.28.62-.62.62-.62-.28-.62-.62Z"/>
        <path class="cls-3" d="m1178.54,1.24c0-.34.28-.62.62-.62s.62.28.62.62-.28.62-.62.62-.62-.28-.62-.62Z"/>
        <path class="cls-3" d="m988.92,128.36c0-.34.28-.62.62-.62s.62.28.62.62-.28.62-.62.62-.62-.28-.62-.62Z"/>
        <path class="cls-3" d="m468.72,126.69c0-.34.28-.62.62-.62s.62.28.62.62-.28.62-.62.62-.62-.28-.62-.62Z"/>
        <circle class="cls-3" cx="94.07" cy="39.9" r=".62"/>
        <path class="cls-3" d="m766.56,152.72c0-.34.28-.62.62-.62s.62.28.62.62-.28.62-.62.62-.62-.28-.62-.62Z"/>
        <circle class="cls-3" cx="862.92" cy="146.92" r=".62"/>
        <path class="cls-3" d="m1330.97,10.28c0-.34.28-.62.62-.62s.62.28.62.62-.28.62-.62.62-.62-.28-.62-.62Z"/>
        <path class="cls-3" d="m1409.59,115.78c0-.34.28-.62.62-.62s.62.28.62.62-.28.62-.62.62-.62-.28-.62-.62Z"/>
        <circle class="cls-3" cx="1377.58" cy="123.84" r=".62"/>
        <path class="cls-2" d="m919.88,103.25c0-.34.28-.62.62-.62s.62.28.62.62-.28.62-.62.62-.62-.28-.62-.62Z"/>
        <path class="cls-2" d="m1395.37.62c0-.34.28-.62.62-.62s.62.28.62.62-.28.62-.62.62-.62-.28-.62-.62Z"/>
        <path class="cls-3" d="m1188.6,103.25c0-.34.28-.62.62-.62s.62.28.62.62-.28.62-.62.62-.62-.28-.62-.62Z"/>
        <circle class="cls-3" cx="969.52" cy="106.67" r=".62"/>
        <circle class="cls-3" cx="753.36" cy="97.73" r=".62"/>
        <circle class="cls-3" cx="968.9" cy="44.43" r=".62"/>
        <path class="cls-3" d="m896.54,25.55c0-.34.28-.62.62-.62s.62.28.62.62-.28.62-.62.62-.62-.28-.62-.62Z"/>
        <path class="cls-3" d="m608.79,61.48c0-.34.28-.62.62-.62s.62.28.62.62-.28.62-.62.62-.62-.28-.62-.62Z"/>
        <path class="cls-4" d="m1120.59,191.07c0-.34.28-.62.62-.62s.62.28.62.62-.28.62-.62.62-.62-.28-.62-.62Z"/>
        <path class="cls-4" d="m1181.08,205.97c0-.34.28-.62.62-.62s.62.28.62.62-.28.62-.62.62-.62-.28-.62-.62Z"/>
        <path class="cls-5" d="m418.4,117.77c0-.34.28-.62.62-.62s.62.28.62.62-.28.62-.62.62-.62-.28-.62-.62Z"/>
        <path class="cls-4" d="m209.93,197.14c0-.34.28-.62.62-.62s.62.28.62.62-.28.62-.62.62-.62-.28-.62-.62Z"/>
        <path class="cls-4" d="m1155.46,163.43c0-.34.28-.62.62-.62s.62.28.62.62-.28.62-.62.62-.62-.28-.62-.62Z"/>
        <path class="cls-4" d="m743.14,82.91c0-.34.28-.62.62-.62s.62.28.62.62-.28.62-.62.62-.62-.28-.62-.62Z"/>
        <circle class="cls-4" cx="719.62" cy="71.07" r=".62"/>
        <path class="cls-4" d="m529.38,198.19c0-.34.28-.62.62-.62s.62.28.62.62-.28.62-.62.62-.62-.28-.62-.62Z"/>
        <path class="cls-4" d="m9.19,196.52c0-.34.28-.62.62-.62s.62.28.62.62-.28.62-.62.62-.62-.28-.62-.62Z"/>
        <path class="cls-4" d="m300.92,177.38c0-.34.28-.62.62-.62s.62.28.62.62-.28.62-.62.62-.62-.28-.62-.62Z"/>
        <circle class="cls-4" cx="403.39" cy="216.75" r=".62"/>
        <path class="cls-4" d="m871.44,80.11c0-.34.28-.62.62-.62s.62.28.62.62-.28.62-.62.62-.62-.28-.62-.62Z"/>
        <path class="cls-4" d="m950.05,185.62c0-.34.28-.62.62-.62s.62.28.62.62-.28.62-.62.62-.62-.28-.62-.62Z"/>
        <circle class="cls-4" cx="918.05" cy="193.67" r=".62"/>
        <circle class="cls-5" cx="460.96" cy="173.08" r=".62"/>
        <path class="cls-5" d="m935.83,70.45c0-.34.28-.62.62-.62s.62.28.62.62-.28.62-.62.62-.62-.28-.62-.62Z"/>
        <path class="cls-4" d="m710.94,180.58c0-.34.28-.62.62-.62s.62.28.62.62-.28.62-.62.62-.62-.28-.62-.62Z"/>
        <path class="cls-4" d="m1170.59,110.94c0-.34.28-.62.62-.62s.62.28.62.62-.28.62-.62.62-.62-.28-.62-.62Z"/>
        <path class="cls-4" d="m1146.45,99.1c0-.34.28-.62.62-.62s.62.28.62.62-.28.62-.62.62-.62-.28-.62-.62Z"/>
        <path class="cls-4" d="m1298.89,108.14c0-.34.28-.62.62-.62s.62.28.62.62-.28.62-.62.62-.62-.28-.62-.62Z"/>
        <path class="cls-4" d="m1377.5,213.65c0-.34.28-.62.62-.62s.62.28.62.62-.28.62-.62.62-.62-.28-.62-.62Z"/>
        <path class="cls-4" d="m1314.9,212.41c0-.34.28-.62.62-.62s.62.28.62.62-.28.62-.62.62-.62-.28-.62-.62Z"/>
        <circle class="cls-5" cx="1363.9" cy="98.48" r=".62"/>
        <circle class="cls-4" cx="1157.14" cy="201.11" r=".62"/>
        <path class="cls-4" d="m509.37,176.5c0-.34.28-.62.62-.62s.62.28.62.62-.28.62-.62.62-.62-.28-.62-.62Z"/>
        <circle class="cls-4" cx="287.72" cy="122.38" r=".62"/>
        <circle class="cls-4" cx="509.37" cy="114.26" r=".62"/>
        <circle class="cls-4" cx="477.11" cy="85.52" r=".62"/>
        <circle class="cls-4" cx="437.63" cy="95.38" r=".62"/>
        <path class="cls-2" d="m723.95,157.62c0-.34.28-.62.62-.62s.62.28.62.62-.28.62-.62.62-.62-.28-.62-.62Z"/>
        <path class="cls-3" d="m994.9,204.05c0-.34.28-.62.62-.62s.62.28.62.62-.28.62-.62.62-.62-.28-.62-.62Z"/>
        <path class="cls-3" d="m772.55,228.41c0-.34.28-.62.62-.62s.62.28.62.62-.28.62-.62.62-.62-.28-.62-.62Z"/>
        <path class="cls-3" d="m868.29,222.61c0-.34.28-.62.62-.62s.62.28.62.62-.28.62-.62.62-.62-.28-.62-.62Z"/>
        <path class="cls-2" d="m925.86,178.94c0-.34.28-.62.62-.62s.62.28.62.62-.28.62-.62.62-.62-.28-.62-.62Z"/>
        <circle class="cls-3" cx="1195.21" cy="178.94" r=".62"/>
        <path class="cls-3" d="m974.89,182.36c0-.34.28-.62.62-.62s.62.28.62.62-.28.62-.62.62-.62-.28-.62-.62Z"/>
        <path class="cls-3" d="m758.73,173.42c0-.34.28-.62.62-.62s.62.28.62.62-.28.62-.62.62-.62-.28-.62-.62Z"/>
        <circle class="cls-4" cx="1177.01" cy="248.11" r=".62"/>
        <path class="cls-4" d="m1187.06,281.66c0-.34.28-.62.62-.62s.62.28.62.62-.28.62-.62.62-.62-.28-.62-.62Z"/>
        <path class="cls-4" d="m1161.45,239.11c0-.34.28-.62.62-.62s.62.28.62.62-.28.62-.62.62-.62-.28-.62-.62Z"/>
        <path class="cls-4" d="m749.13,158.6c0-.34.28-.62.62-.62s.62.28.62.62-.28.62-.62.62-.62-.28-.62-.62Z"/>
        <path class="cls-4" d="m724.99,146.76c0-.34.28-.62.62-.62s.62.28.62.62-.28.62-.62.62-.62-.28-.62-.62Z"/>
        <circle class="cls-4" cx="878.04" cy="155.8" r=".62"/>
        <circle class="cls-4" cx="956.66" cy="261.3" r=".62"/>
        <path class="cls-4" d="m923.41,269.36c0-.34.28-.62.62-.62s.62.28.62.62-.28.62-.62.62-.62-.28-.62-.62Z"/>
        <path class="cls-5" d="m941.82,146.14c0-.34.28-.62.62-.62s.62.28.62.62-.28.62-.62.62-.62-.28-.62-.62Z"/>
        <path class="cls-4" d="m735.06,248.77c0-.34.28-.62.62-.62s.62.28.62.62-.28.62-.62.62-.62-.28-.62-.62Z"/>
        <path class="cls-4" d="m1134.52,179.56c0-.34.28-.62.62-.62s.62.28.62.62-.28.62-.62.62-.62-.28-.62-.62Z"/>
        <circle class="cls-4" cx="1094.01" cy="151.28" r=".62"/>
        <circle class="cls-4" cx="1305.49" cy="183.83" r=".62"/>
        <path class="cls-4" d="m1320.88,288.1c0-.34.28-.62.62-.62s.62.28.62.62-.28.62-.62.62-.62-.28-.62-.62Z"/>
        <circle class="cls-4" cx="1163.13" cy="276.8" r=".62"/>
        <path class="cls-2" d="m1246.44,104.82c0-.34.28-.62.62-.62s.62.28.62.62-.28.62-.62.62-.62-.28-.62-.62Z"/>
        <path class="cls-3" d="m1197.94,150.2c0-.34.28-.62.62-.62s.62.28.62.62-.28.62-.62.62-.62-.28-.62-.62Z"/>
        <path class="cls-3" d="m997.21,149.59c0-.34.28-.62.62-.62s.62.28.62.62-.28.62-.62.62-.62-.28-.62-.62Z"/>
        <circle class="cls-3" cx="1295.67" cy="175.62" r=".62"/>
        <path class="cls-3" d="m1281.23,120.62c0-.34.28-.62.62-.62s.62.28.62.62-.28.62-.62.62-.62-.28-.62-.62Z"/>
        <path class="cls-3" d="m1137.27,84.37c0-.34.28-.62.62-.62s.62.28.62.62-.28.62-.62.62-.62-.28-.62-.62Z"/>
        <circle class="cls-5" cx="787.53" cy="174.65" r=".62"/>
        <path class="cls-4" d="m738.41,220.04c0-.34.28-.62.62-.62s.62.28.62.62-.28.62-.62.62-.62-.28-.62-.62Z"/>
        <path class="cls-4" d="m1271.63,105.8c0-.34.28-.62.62-.62s.62.28.62.62-.28.62-.62.62-.62-.28-.62-.62Z"/>
        <circle class="cls-4" cx="1248.11" cy="93.96" r=".62"/>
        <path class="cls-4" d="m1057.87,221.08c0-.34.28-.62.62-.62s.62.28.62.62-.28.62-.62.62-.62-.28-.62-.62Z"/>
        <path class="cls-4" d="m835.51,245.45c0-.34.28-.62.62-.62s.62.28.62.62-.28.62-.62.62-.62-.28-.62-.62Z"/>
        <path class="cls-4" d="m931.25,239.64c0-.34.28-.62.62-.62s.62.28.62.62-.28.62-.62.62-.62-.28-.62-.62Z"/>
        <path class="cls-5" d="m988.83,195.97c0-.34.28-.62.62-.62s.62.28.62.62-.28.62-.62.62-.62-.28-.62-.62Z"/>
        <path class="cls-4" d="m1257.56,195.97c0-.34.28-.62.62-.62s.62.28.62.62-.28.62-.62.62-.62-.28-.62-.62Z"/>
        <path class="cls-4" d="m1037.86,199.4c0-.34.28-.62.62-.62s.62.28.62.62-.28.62-.62.62-.62-.28-.62-.62Z"/>
        <path class="cls-4" d="m821.69,190.46c0-.34.28-.62.62-.62s.62.28.62.62-.28.62-.62.62-.62-.28-.62-.62Z"/>
        <path class="cls-4" d="m1037.24,137.15c0-.34.28-.62.62-.62s.62.28.62.62-.28.62-.62.62-.62-.28-.62-.62Z"/>
        <path class="cls-4" d="m965.49,118.28c0-.34.28-.62.62-.62s.62.28.62.62-.28.62-.62.62-.62-.28-.62-.62Z"/>
        <path class="cls-2" d="m0,147.85c0-.44.35-.79.79-.79s.79.35.79.79-.35.79-.79.79-.79-.35-.79-.79Z"/>
        <path class="cls-3" d="m340.44,162.05c0-.44.35-.79.79-.79s.79.35.79.79-.35.79-.79.79-.79-.35-.79-.79Z"/>
        <path class="cls-3" d="m62.16,238.39c0-.44.35-.79.79-.79s.79.35.79.79-.35.79-.79.79-.79-.35-.79-.79Z"/>
        <path class="cls-3" d="m184.61,230.96c0-.44.35-.79.79-.79s.79.35.79.79-.35.79-.79.79-.79-.35-.79-.79Z"/>
        <path class="cls-2" d="m252.14,129.94c0-.44.35-.79.79-.79s.79.35.79.79-.35.79-.79.79-.79-.35-.79-.79Z"/>
        <path class="cls-3" d="m601.94,175.11c0-.44.35-.79.79-.79s.79.35.79.79-.35.79-.79.79-.79-.35-.79-.79Z"/>
        <path class="cls-3" d="m314.84,134.31c0-.44.35-.79.79-.79s.79.35.79.79-.35.79-.79.79-.79-.35-.79-.79Z"/>
        <path class="cls-3" d="m44.48,168.05c0-.44.35-.79.79-.79s.79.35.79.79-.35.79-.79.79-.79-.35-.79-.79Z"/>
        <path class="cls-4" d="m578.67,263.59c0-.44.35-.79.79-.79s.79.35.79.79-.35.79-.79.79-.79-.35-.79-.79Z"/>
        <path class="cls-4" d="m592.32,306.5c0-.44.35-.79.79-.79s.79.35.79.79-.35.79-.79.79-.79-.35-.79-.79Z"/>
        <path class="cls-4" d="m559.56,252.08c0-.44.35-.79.79-.79s.79.35.79.79-.35.79-.79.79-.79-.35-.79-.79Z"/>
        <path class="cls-4" d="m32.21,149.1c0-.44.35-.79.79-.79s.79.35.79.79-.35.79-.79.79-.79-.35-.79-.79Z"/>
        <path class="cls-4" d="m1.34,133.96c0-.44.35-.79.79-.79s.79.35.79.79-.35.79-.79.79-.79-.35-.79-.79Z"/>
        <circle class="cls-4" cx="197.09" cy="145.51" r=".79"/>
        <path class="cls-4" d="m290.73,235.28c0-.44.35-.79.79-.79s.79.35.79.79-.35.79-.79.79-.79-.35-.79-.79Z"/>
        <path class="cls-4" d="m249,245.58c0-.44.35-.79.79-.79s.79.35.79.79-.35.79-.79.79-.79-.35-.79-.79Z"/>
        <circle class="cls-5" cx="273.33" cy="87.99" r=".79" transform="translate(-3.18 10.55) rotate(-2.2)"/>
        <path class="cls-4" d="m14.21,264.43c0-.44.35-.79.79-.79s.79.35.79.79-.35.79-.79.79-.79-.35-.79-.79Z"/>
        <path class="cls-4" d="m578.91,184.95c0-.44.35-.79.79-.79s.79.35.79.79-.35.79-.79.79-.79-.35-.79-.79Z"/>
        <path class="cls-4" d="m548.04,169.81c0-.44.35-.79.79-.79s.79.35.79.79-.35.79-.79.79-.79-.35-.79-.79Z"/>
        <path class="cls-4" d="m743,181.37c0-.44.35-.79.79-.79s.79.35.79.79-.35.79-.79.79-.79-.35-.79-.79Z"/>
        <path class="cls-4" d="m763.47,314.73c0-.44.35-.79.79-.79s.79.35.79.79-.35.79-.79.79-.79-.35-.79-.79Z"/>
        <path class="cls-4" d="m560.91,300.28c0-.44.35-.79.79-.79s.79.35.79.79-.35.79-.79.79-.79-.35-.79-.79Z"/>
        <path class="cls-2" d="m668.27,80.32c0-.44.35-.79.79-.79s.79.35.79.79-.35.79-.79.79-.79-.35-.79-.79Z"/>
        <path class="cls-3" d="m606.23,138.36c0-.44.35-.79.79-.79s.79.35.79.79-.35.79-.79.79-.79-.35-.79-.79Z"/>
        <circle class="cls-3" cx="344.17" cy="92.39" r=".79" transform="translate(240.38 433.3) rotate(-88.09)"/>
        <path class="cls-3" d="m730.43,170.87c0-.44.35-.79.79-.79s.79.35.79.79-.35.79-.79.79-.79-.35-.79-.79Z"/>
        <path class="cls-3" d="m1009.32,103.05c0-.34.28-.62.62-.62s.62.28.62.62-.28.62-.62.62-.62-.28-.62-.62Z"/>
        <path class="cls-3" d="m976.7,111.11c0-.34.28-.62.62-.62s.62.28.62.62-.28.62-.62.62-.62-.28-.62-.62Z"/>
        <circle class="cls-4" cx="899.24" cy="95.41" r=".62"/>
        <path class="cls-4" d="m977.24,200.92c0-.34.28-.62.62-.62s.62.28.62.62-.28.62-.62.62-.62-.28-.62-.62Z"/>
        <path class="cls-4" d="m914.64,199.68c0-.34.28-.62.62-.62s.62.28.62.62-.28.62-.62.62-.62-.28-.62-.62Z"/>
        <circle class="cls-5" cx="963.64" cy="85.75" r=".62"/>
        <path class="cls-3" d="m888.8,87.2c0-.34.28-.62.62-.62s.62.28.62.62-.28.62-.62.62-.62-.28-.62-.62Z"/>
        <path class="cls-3" d="m984.54,81.39c0-.34.28-.62.62-.62s.62.28.62.62-.28.62-.62.62-.62-.28-.62-.62Z"/>
        <path class="cls-2" d="m846.18,92.09c0-.34.28-.62.62-.62s.62.28.62.62-.28.62-.62.62-.62-.28-.62-.62Z"/>
        <path class="cls-3" d="m894.78,162.89c0-.34.28-.62.62-.62s.62.28.62.62-.28.62-.62.62-.62-.28-.62-.62Z"/>
        <path class="cls-3" d="m990.52,157.08c0-.34.28-.62.62-.62s.62.28.62.62-.28.62-.62.62-.62-.28-.62-.62Z"/>
        <circle class="cls-3" cx="881.58" cy="107.89" r=".62"/>
        <path class="cls-4" d="m871.37,93.07c0-.34.28-.62.62-.62s.62.28.62.62-.28.62-.62.62-.62-.28-.62-.62Z"/>
        <path class="cls-4" d="m847.23,81.23c0-.34.28-.62.62-.62s.62.28.62.62-.28.62-.62.62-.62-.28-.62-.62Z"/>
        <path class="cls-4" d="m999.66,90.27c0-.34.28-.62.62-.62s.62.28.62.62-.28.62-.62.62-.62-.28-.62-.62Z"/>
        <path class="cls-4" d="m857.29,183.24c0-.34.28-.62.62-.62s.62.28.62.62-.28.62-.62.62-.62-.28-.62-.62Z"/>
        <path class="cls-5" d="m909.15,109.13c0-.34.28-.62.62-.62s.62.28.62.62-.28.62-.62.62-.62-.28-.62-.62Z"/>
        <circle class="cls-4" cx="861.27" cy="154.51" r=".62"/>
        <path class="cls-4" d="m957.75,179.92c0-.34.28-.62.62-.62s.62.28.62.62-.28.62-.62.62-.62-.28-.62-.62Z"/>
        <path class="cls-4" d="m943.93,124.93c0-.34.28-.62.62-.62s.62.28.62.62-.28.62-.62.62-.62-.28-.62-.62Z"/>
        <path class="cls-4" d="m865.23,115.84c0-.44.35-.79.79-.79s.79.35.79.79-.35.79-.79.79-.79-.35-.79-.79Z"/>
        <path class="cls-3" d="m495.07,262.79c0-.34.28-.62.62-.62s.62.28.62.62-.28.62-.62.62-.62-.28-.62-.62Z"/>
        <circle class="cls-3" cx="463.06" cy="270.85" r=".62"/>
        <circle class="cls-5" cx="449.38" cy="245.49" r=".62"/>
        <circle class="cls-3" cx="470.9" cy="241.13" r=".62"/>
        <circle class="cls-2" cx="534.47" cy="273.15" r=".62"/>
        <circle class="cls-4" cx="486.03" cy="250.01" r=".62"/>
        <path class="cls-3" d="m502.77,257.1c0-.34.28-.62.62-.62s.62.28.62.62-.28.62-.62.62-.62-.28-.62-.62Z"/>
        <path class="cls-4" d="m465.28,277.45c0-.34.28-.62.62-.62s.62.28.62.62-.28.62-.62.62-.62-.28-.62-.62Z"/>
        <circle class="cls-4" cx="469.25" cy="248.72" r=".62"/>
        <path class="cls-4" d="m473.21,210.05c0-.44.35-.79.79-.79s.79.35.79.79-.35.79-.79.79-.79-.35-.79-.79Z"/>
        <path class="cls-3" d="m852.66,105.34c0-.44.35-.79.79-.79s.79.35.79.79-.35.79-.79.79-.79-.35-.79-.79Z"/>
        <path class="cls-3" d="m246.25,137.38c.25-.07.5.08.56.33.07.25-.08.5-.33.56s-.5-.08-.56-.33c-.07-.25.08-.5.33-.56Z"/>
        <path class="cls-3" d="m153.84,119.62c.25-.07.5.08.56.33s-.08.5-.33.56c-.25.07-.5-.08-.56-.33-.07-.25.08-.5.33-.56Z"/>
        <path class="cls-4" d="m175.93,178.2c.25-.07.5.08.56.33.07.25-.08.5-.33.56-.25.07-.5-.08-.56-.33-.07-.25.08-.5.33-.56Z"/>
        <path class="cls-5" d="m249.84,100.81c.25-.07.5.08.56.33.07.25-.08.5-.33.56-.25.07-.5-.08-.56-.33s.08-.5.33-.56Z"/>
        <path class="cls-3" d="m257.08,115.44c.25-.07.5.08.56.33.07.25-.08.5-.33.56-.25.07-.5-.08-.56-.33s.08-.5.33-.56Z"/>
        <path class="cls-2" d="m299.45,148.47c.25-.07.5.08.56.33.07.25-.08.5-.33.56-.25.07-.5-.08-.56-.33-.07-.25.08-.5.33-.56Z"/>
        <path class="cls-3" d="m306.36,184.34c.25-.07.5.08.56.33.07.25-.08.5-.33.56s-.5-.08-.56-.33c-.07-.25.08-.5.33-.56Z"/>
        <path class="cls-3" d="m350.96,172.01c.25-.07.5.08.56.33.07.25-.08.5-.33.56s-.5-.08-.56-.33c-.07-.25.08-.5.33-.56Z"/>
        <path class="cls-3" d="m350.82,116.86c.25-.07.5.08.56.33.07.25-.08.5-.33.56s-.5-.08-.56-.33c-.07-.25.08-.5.33-.56Z"/>
        <path class="cls-4" d="m306.83,109.24c.25-.07.5.08.56.33.07.25-.08.5-.33.56-.25.07-.5-.08-.56-.33-.07-.25.08-.5.33-.56Z"/>
        <path class="cls-4" d="m246.04,185.87c.25-.07.5.08.56.33.07.25-.08.5-.33.56-.25.07-.5-.08-.56-.33-.07-.25.08-.5.33-.56Z"/>
        <path class="cls-4" d="m234.02,163.97c.25-.07.5.08.56.33.07.25-.08.5-.33.56s-.5-.08-.56-.33c-.07-.25.08-.5.33-.56Z"/>
        <path class="cls-5" d="m326.07,153.67c.25-.07.5.08.56.33.07.25-.08.5-.33.56-.25.07-.5-.08-.56-.33-.07-.25.08-.5.33-.56Z"/>
        <path class="cls-3" d="m209.96,179.37c.25-.07.5.08.56.33.07.25-.08.5-.33.56-.25.07-.5-.08-.56-.33s.08-.5.33-.56Z"/>
        <path class="cls-2" d="m246.22,167.22c.25-.07.5.08.56.33.07.25-.08.5-.33.56s-.5-.08-.56-.33c-.07-.25.08-.5.33-.56Z"/>
        <path class="cls-3" d="m253.12,203.1c.25-.07.5.08.56.33.07.25-.08.5-.33.56-.25.07-.5-.08-.56-.33-.07-.25.08-.5.33-.56Z"/>
        <path class="cls-4" d="m253.59,128c.25-.07.5.08.56.33.07.25-.08.5-.33.56-.25.07-.5-.08-.56-.33s.08-.5.33-.56Z"/>
        <path class="cls-4" d="m198.91,249.81c.25-.07.5.08.56.33.07.25-.08.5-.33.56-.25.07-.5-.08-.56-.33-.07-.25.08-.5.33-.56Z"/>
        <path class="cls-4" d="m186.9,227.91c.25-.07.5.08.56.33.07.25-.08.5-.33.56s-.5-.08-.56-.33c-.07-.25.08-.5.33-.56Z"/>
        <path class="cls-5" d="m272.83,172.42c.25-.07.5.08.56.33.07.25-.08.5-.33.56-.25.07-.5-.08-.56-.33-.07-.25.08-.5.33-.56Z"/>
        <path class="cls-4" d="m187.29,160.19c.25-.07.5.08.56.33.07.25-.08.5-.33.56s-.5-.08-.56-.33c-.07-.25.08-.5.33-.56Z"/>
        <path class="cls-4" d="m209.74,227.86c.25-.07.5.08.56.33.07.25-.08.5-.33.56-.25.07-.5-.08-.56-.33-.07-.25.08-.5.33-.56Z"/>
        <path class="cls-4" d="m297.37,184.11c.25-.07.5.08.56.33.07.25-.08.5-.33.56-.25.07-.5-.08-.56-.33-.07-.25.08-.5.33-.56Z"/>
        <path class="cls-3" d="m304.66,190.79c.25-.07.5.08.56.33s-.08.5-.33.56c-.25.07-.5-.08-.56-.33-.07-.25.08-.5.33-.56Z"/>
        <path class="cls-4" d="m301.03,131.7c.25-.07.5.08.56.33.07.25-.08.5-.33.56-.25.07-.5-.08-.56-.33s.08-.5.33-.56Z"/>
        <path class="cls-4" d="m229.17,163.11c.25-.07.5.08.56.33.07.25-.08.5-.33.56-.25.07-.5-.08-.56-.33-.07-.25.08-.5.33-.56Z"/>
        <path class="cls-5" d="m320.26,176.12c.25-.07.5.08.56.33s-.08.5-.33.56c-.25.07-.5-.08-.56-.33-.07-.25.08-.5.33-.56Z"/>
        <path class="cls-3" d="m305.05,123.07c.25-.07.5.08.56.33s-.08.5-.33.56c-.25.07-.5-.08-.56-.33-.07-.25.08-.5.33-.56Z"/>
        <path class="cls-2" d="m293.4,93.39c.25-.07.5.08.56.33s-.08.5-.33.56c-.25.07-.5-.08-.56-.33s.08-.5.33-.56Z"/>
        <path class="cls-3" d="m251.81,141.83c.25-.07.5.08.56.33.07.25-.08.5-.33.56-.25.07-.5-.08-.56-.33-.07-.25.08-.5.33-.56Z"/>
        <path class="cls-3" d="m316.12,153.21c.25-.07.5.08.56.33.07.25-.08.5-.33.56-.25.07-.5-.08-.56-.33-.07-.25.08-.5.33-.56Z"/>
        <path class="cls-4" d="m297.5,111.67c.25-.07.5.08.56.33s-.08.5-.33.56c-.25.07-.5-.08-.56-.33-.07-.25.08-.5.33-.56Z"/>
        <path class="cls-4" d="m301.4,92.06c.25-.07.5.08.56.33.07.25-.08.5-.33.56s-.5-.08-.56-.33c-.07-.25.08-.5.33-.56Z"/>
        <path class="cls-4" d="m230.03,118.78c.25-.07.5.08.56.33.07.25-.08.5-.33.56-.25.07-.5-.08-.56-.33-.07-.25.08-.5.33-.56Z"/>
        <path class="cls-5" d="m293.18,141.88c.25-.07.5.08.56.33.07.25-.08.5-.33.56s-.5-.08-.56-.33c-.07-.25.08-.5.33-.56Z"/>
        <path class="cls-4" d="m235.97,126.87c.25-.07.5.08.56.33.07.25-.08.5-.33.56s-.5-.08-.56-.33c-.07-.25.08-.5.33-.56Z"/>
        <path class="cls-5" d="m436.98,137.04c0-.34.28-.62.62-.62s.62.28.62.62-.28.62-.62.62-.62-.28-.62-.62Z"/>
        <path class="cls-5" d="m434.51,131.27c.25-.07.5.08.56.33.07.25-.08.5-.33.56-.25.07-.5-.08-.56-.33-.07-.25.08-.5.33-.56Z"/>
        <path class="cls-3" d="m441.75,145.89c.25-.07.5.08.56.33.07.25-.08.5-.33.56-.25.07-.5-.08-.56-.33-.07-.25.08-.5.33-.56Z"/>
        <path class="cls-4" d="m435.98,146.16c.25-.07.5.08.56.33.07.25-.08.5-.33.56s-.5-.08-.56-.33c-.07-.25.08-.5.33-.56Z"/>
        <path class="cls-4" d="m251.6,190.32c.25-.07.5.08.56.33.07.25-.08.5-.33.56-.25.07-.5-.08-.56-.33-.07-.25.08-.5.33-.56Z"/>
        <path class="cls-4" d="m288.47,169.89c.25-.07.5.08.56.33.07.25-.08.5-.33.56-.25.07-.5-.08-.56-.33-.07-.25.08-.5.33-.56Z"/>
        <path class="cls-4" d="m342.68,109.92c.31-.08.64.1.72.42.08.31-.1.64-.42.72s-.64-.1-.72-.42c-.08-.31.1-.64.42-.72Z"/>
        <path class="cls-3" d="m187.26,103.1c.31-.08.64.1.72.42s-.1.64-.42.72c-.31.08-.64-.1-.72-.42s.1-.64.42-.72Z"/>
        <path class="cls-3" d="m1196.35,192.83c0-.34.28-.62.62-.62s.62.28.62.62-.28.62-.62.62-.62-.28-.62-.62Z"/>
        <circle class="cls-3" cx="1164.34" cy="200.88" r=".62"/>
        <path class="cls-4" d="m1085.65,185.18c0-.34.28-.62.62-.62s.62.28.62.62-.28.62-.62.62-.62-.28-.62-.62Z"/>
        <path class="cls-4" d="m1164.27,290.69c0-.34.28-.62.62-.62s.62.28.62.62-.28.62-.62.62-.62-.28-.62-.62Z"/>
        <path class="cls-4" d="m1101.66,289.45c0-.34.28-.62.62-.62s.62.28.62.62-.28.62-.62.62-.62-.28-.62-.62Z"/>
        <path class="cls-5" d="m1150.05,175.53c0-.34.28-.62.62-.62s.62.28.62.62-.28.62-.62.62-.62-.28-.62-.62Z"/>
        <path class="cls-3" d="m1075.82,176.97c0-.34.28-.62.62-.62s.62.28.62.62-.28.62-.62.62-.62-.28-.62-.62Z"/>
        <circle class="cls-3" cx="1172.18" cy="171.17" r=".62"/>
        <path class="cls-2" d="m1033.21,181.87c0-.34.28-.62.62-.62s.62.28.62.62-.28.62-.62.62-.62-.28-.62-.62Z"/>
        <path class="cls-3" d="m1081.81,252.66c0-.34.28-.62.62-.62s.62.28.62.62-.28.62-.62.62-.62-.28-.62-.62Z"/>
        <path class="cls-3" d="m1177.55,246.85c0-.34.28-.62.62-.62s.62.28.62.62-.28.62-.62.62-.62-.28-.62-.62Z"/>
        <path class="cls-3" d="m1067.99,197.67c0-.34.28-.62.62-.62s.62.28.62.62-.28.62-.62.62-.62-.28-.62-.62Z"/>
        <path class="cls-4" d="m1058.39,182.85c0-.34.28-.62.62-.62s.62.28.62.62-.28.62-.62.62-.62-.28-.62-.62Z"/>
        <path class="cls-4" d="m1034.25,171.01c0-.34.28-.62.62-.62s.62.28.62.62-.28.62-.62.62-.62-.28-.62-.62Z"/>
        <circle class="cls-4" cx="1187.31" cy="180.04" r=".62"/>
        <circle class="cls-4" cx="1044.94" cy="273.02" r=".62"/>
        <circle class="cls-5" cx="1096.79" cy="198.9" r=".62"/>
        <path class="cls-4" d="m1047.67,244.28c0-.34.28-.62.62-.62s.62.28.62.62-.28.62-.62.62-.62-.28-.62-.62Z"/>
        <circle class="cls-4" cx="1145.4" cy="269.7" r=".62"/>
        <path class="cls-4" d="m1130.96,214.7c0-.34.28-.62.62-.62s.62.28.62.62-.28.62-.62.62-.62-.28-.62-.62Z"/>
        <path class="cls-4" d="m1052.26,205.62c0-.44.35-.79.79-.79s.79.35.79.79-.35.79-.79.79-.79-.35-.79-.79Z"/>
        <path class="cls-3" d="m1039.69,195.11c0-.44.35-.79.79-.79s.79.35.79.79-.35.79-.79.79-.79-.35-.79-.79Z"/>
        <path class="cls-3" d="m712.75,100.53c0-.44.35-.79.79-.79s.79.35.79.79-.35.79-.79.79-.79-.35-.79-.79Z"/>
        <path class="cls-3" d="m528.64,54.16c0-.44.35-.79.79-.79s.79.35.79.79-.35.79-.79.79-.79-.35-.79-.79Z"/>
        <circle class="cls-5" cx="81.32" cy="169.64" r=".79"/>
        <circle class="cls-4" cx="19.29" cy="227.68" r=".79"/>
        <circle class="cls-4" cx="701.26" cy="81.57" r=".79" transform="translate(596.41 779.74) rotate(-88.09)"/>
        <path class="cls-4" d="m669.6,66.43c0-.44.35-.79.79-.79s.79.35.79.79-.35.79-.79.79-.79-.35-.79-.79Z"/>
        <path class="cls-4" d="m427.08,229.02c0-.44.35-.79.79-.79s.79.35.79.79-.35.79-.79.79-.79-.35-.79-.79Z"/>
        <path class="cls-4" d="m142.69,260.18c0-.44.35-.79.79-.79s.79.35.79.79-.35.79-.79.79-.79-.35-.79-.79Z"/>
        <path class="cls-4" d="m259.03,207.57c0-.44.35-.79.79-.79s.79.35.79.79-.35.79-.79.79-.79-.35-.79-.79Z"/>
        <path class="cls-5" d="m332.67,151.72c0-.44.35-.79.79-.79s.79.35.79.79-.35.79-.79.79-.79-.35-.79-.79Z"/>
        <path class="cls-4" d="m682.48,196.9c0-.44.35-.79.79-.79s.79.35.79.79-.35.79-.79.79-.79-.35-.79-.79Z"/>
        <path class="cls-4" d="m401.48,201.28c0-.44.35-.79.79-.79s.79.35.79.79-.35.79-.79.79-.79-.35-.79-.79Z"/>
        <path class="cls-4" d="m125.02,189.84c0-.44.35-.79.79-.79s.79.35.79.79-.35.79-.79.79-.79-.35-.79-.79Z"/>
        <path class="cls-4" d="m92.49,81.57c0-.44.35-.79.79-.79s.79.35.79.79-.35.79-.79.79-.79-.35-.79-.79Z"/>
        <path class="cls-4" d="m400.69,121.67c0-.44.35-.79.79-.79s.79.35.79.79-.35.79-.79.79-.79-.35-.79-.79Z"/>
        <path class="cls-4" d="m302.82,52.35c0-.44.35-.79.79-.79s.79.35.79.79-.35.79-.79.79-.79-.35-.79-.79Z"/>
        <path class="cls-4" d="m149.26,131.31c0-.34.28-.62.62-.62s.62.28.62.62-.28.62-.62.62-.62-.28-.62-.62Z"/>
      </g>
    </g>
  </g>
</svg>